<svg width="56" height="56" viewBox="0 0 56 56" fill="none" xmlns="http://www.w3.org/2000/svg">
<path fill-rule="evenodd" clip-rule="evenodd" d="M39.7189 5.61377C34.3138 5.61377 30.899 8.84634 29 11.5265C28.6248 12.0561 28.2925 12.5865 28.0002 13.0984C27.708 12.5865 27.3757 12.0561 27.0003 11.5265C25.1014 8.84634 21.6866 5.61377 16.2814 5.61377C12.4498 5.61377 8.94651 7.1916 6.42307 10.0548C4.01869 12.7832 2.7002 16.4303 2.7002 20.3195C2.7002 24.5696 4.3634 28.5052 7.8824 32.6903C11.0155 36.4166 15.5153 40.251 20.694 44.6641L20.7111 44.6786C22.6461 46.3275 24.6454 48.0313 26.7738 49.8936L26.8377 49.9495C27.1705 50.2409 27.5857 50.3864 28.0002 50.3864C28.4148 50.3864 28.8301 50.2406 29.1628 49.9495L29.2265 49.8936C31.3488 48.0367 33.3427 46.3375 35.2727 44.6928L35.306 44.6644C40.4848 40.2515 44.9848 36.4169 48.118 32.6903C51.637 28.5051 53.3002 24.5696 53.3002 20.3195C53.3002 16.4303 51.9817 12.7832 49.5772 10.0547C47.0539 7.19149 43.5505 5.61377 39.7189 5.61377ZM28 13.7177C27.9446 13.6144 27.8875 13.51 27.8287 13.4048C27.5197 12.852 27.1633 12.2753 26.7556 11.6999C26.2779 11.0258 25.7047 10.3186 25.0282 9.63922C25.7046 10.3185 26.2778 11.0256 26.7554 11.6997C27.2407 12.3847 27.6534 13.0715 28 13.7178C28 13.7177 28 13.7177 28 13.7177ZM49.352 10.2528C51.7044 12.9223 53 16.4973 53 20.3193C53 24.4798 51.3757 28.3493 47.8882 32.4971C44.7713 36.2042 40.2872 40.0253 35.095 44.4497L35.0776 44.4646C33.1478 46.1091 31.1526 47.8094 29.0288 49.6676L28.9648 49.7236C28.6887 49.9653 28.3443 50.0862 28 50.0862C27.6557 50.0862 27.3113 49.9654 27.0352 49.7236L27.0354 49.7238C27.3115 49.9656 27.6559 50.0864 28.0002 50.0864C28.3445 50.0864 28.6889 49.9655 28.965 49.7238L29.029 49.6678C31.1524 47.8099 33.1474 46.1098 35.0769 44.4655L35.0952 44.4499C40.2874 40.0255 44.7715 36.2044 47.8884 32.4973C51.3759 28.3495 53.0002 24.48 53.0002 20.3195C53.0002 16.4975 51.7046 12.9225 49.3521 10.253C49.3521 10.253 49.352 10.2529 49.352 10.2528ZM26.9714 49.6678L26.9712 49.6676C26.8381 49.5512 26.7056 49.4354 26.5735 49.3202C26.7057 49.4355 26.8383 49.5513 26.9714 49.6678ZM20.9063 44.4508C20.9059 44.4505 20.9056 44.4502 20.9053 44.4499C20.5808 44.1734 20.2591 43.8993 19.9403 43.6274C20.2592 43.8994 20.5809 44.1736 20.9055 44.4501L20.9063 44.4508ZM16.2814 9.14346C20.1584 9.14346 22.6759 11.5284 24.1203 13.5671C25.4152 15.3946 26.0923 17.24 26.3222 17.9455C26.5588 18.672 27.2362 19.1637 28.0002 19.1637C28.7642 19.1637 29.4416 18.672 29.6782 17.9455C29.9081 17.24 30.5851 15.3946 31.8801 13.567C33.3245 11.5284 35.842 9.14346 39.7189 9.14346C42.526 9.14346 45.0844 10.2954 46.9291 12.3885C48.7569 14.4623 49.7705 17.2768 49.7705 20.3195C49.7705 23.9798 48.1403 27.2229 45.2154 30.6478C42.2857 34.0783 38.0879 37.6565 33.0002 41.9919C31.3929 43.3615 29.7393 44.7706 28.0002 46.2804C26.2612 44.7708 24.6075 43.3616 22.9998 41.9917C17.9123 37.6564 13.7147 34.0783 10.785 30.6477C7.86013 27.2229 6.22988 23.9798 6.22988 20.3195C6.22988 17.2768 7.24352 14.4623 9.07115 12.3885C10.916 10.2954 13.4744 9.14346 16.2814 9.14346ZM39.7189 8.84346C35.7024 8.84346 33.1061 11.3179 31.6354 13.3936C30.3161 15.2554 29.6277 17.1321 29.393 17.8525C29.1966 18.4556 28.6344 18.8637 28.0002 18.8637C27.6038 18.8637 27.2356 18.7043 26.9672 18.4375C27.2356 18.7041 27.6037 18.8635 28 18.8635C28.6342 18.8635 29.1964 18.4554 29.3928 17.8523C29.6275 17.1319 30.3159 15.2552 31.6352 13.3934C33.1059 11.3177 35.7022 8.84326 39.7188 8.84326C42.2499 8.84326 44.588 9.75334 46.4073 11.4267C44.5881 9.75346 42.25 8.84346 39.7189 8.84346ZM12.8857 33.3533C8.50726 28.948 5.92969 24.9791 5.92969 20.3193C5.92969 17.2109 6.96533 14.3238 8.8459 12.1899C10.748 10.0318 13.3886 8.84326 16.2812 8.84326C19.2427 8.84326 21.4321 10.1885 22.9675 11.7272C21.4321 10.1885 19.2428 8.84346 16.2814 8.84346C13.3888 8.84346 10.7482 10.032 8.84609 12.1901C6.96553 14.324 5.92988 17.2111 5.92988 20.3195C5.92988 24.9792 8.50738 28.9481 12.8857 33.3533Z" fill="#2075F3"/>
</svg>
