<svg width="56" height="56" viewBox="0 0 56 56" fill="none" xmlns="http://www.w3.org/2000/svg">
<path d="M27.399 34.1097C27.3937 34.1097 27.3884 34.1097 27.3831 34.1097C26.4061 34.1009 25.6202 33.3018 25.6291 32.3239L25.637 31.4389C25.637 31.3885 25.6397 31.3372 25.645 31.2867C25.8901 28.7124 27.599 27.1345 28.9733 25.8664C29.4388 25.4363 29.8795 25.0301 30.2547 24.6062C30.7122 24.0903 31.376 23.0337 30.6777 21.7584C29.8733 20.2859 27.9087 19.8691 26.3822 20.2186C24.7875 20.5832 24.1999 21.9452 23.991 22.7239C23.7379 23.6682 22.7671 24.2283 21.8229 23.9761C20.8787 23.723 20.3185 22.7522 20.5707 21.808C21.276 19.1735 23.1061 17.3372 25.591 16.7682C28.9353 16.0045 32.3034 17.3558 33.7821 20.0593C35.0131 22.3106 34.676 24.9522 32.9016 26.954C32.4087 27.5097 31.8822 27.9965 31.3724 28.4664C30.1025 29.6389 29.3087 30.423 29.1742 31.5549L29.1671 32.354C29.16 33.3283 28.3689 34.1097 27.399 34.1097Z" fill="#2075F3"/>
<path d="M27.3986 39.4161C26.9384 39.4161 26.4782 39.2302 26.1508 38.9028C25.8145 38.5754 25.6287 38.1152 25.6287 37.6462C25.6287 37.186 25.8145 36.7258 26.1508 36.3984C26.8056 35.7435 27.9915 35.7435 28.6464 36.3984C28.9826 36.7258 29.1685 37.186 29.1685 37.6462C29.1685 38.1152 28.9826 38.5665 28.6552 38.9028C28.3189 39.2302 27.8676 39.4161 27.3986 39.4161Z" fill="#2075F3"/>
<path d="M27.9319 51.006C25.9186 51.006 23.9231 50.744 22.0001 50.2263C13.7134 47.9971 7.2249 41.1326 5.47004 32.737C3.68155 24.1839 6.98242 15.1928 13.8806 9.8309C17.8682 6.73091 22.8974 5.02295 28.0425 5.02295C31.6045 5.02295 35.1416 5.85127 38.2726 7.41675C46.0044 11.2849 51 19.3663 51 28.0061C51 35.0556 47.6734 41.8503 42.1018 46.1812C38.1 49.2927 33.0673 51.006 27.9319 51.006ZM28.0434 8.56276C23.6815 8.56276 19.4231 10.0052 16.0541 12.6256C10.216 17.1636 7.42136 24.7733 8.93551 32.0122C10.4205 39.114 15.9098 44.9219 22.9204 46.8078C24.5434 47.244 26.2301 47.4662 27.9319 47.4662C32.2841 47.4662 36.5452 46.0175 39.9301 43.3865C44.646 39.7211 47.4611 33.9715 47.4611 28.0061C47.4611 20.6955 43.2336 13.8565 36.6903 10.5831C34.0478 9.26187 31.0584 8.56276 28.0434 8.56276Z" fill="#2075F3"/>
</svg>
