<svg width="56" height="56" viewBox="0 0 56 56" fill="none" xmlns="http://www.w3.org/2000/svg">
<path d="M19.4524 37.2359C20.0317 37.6439 20.7233 37.862 21.4318 37.8602C22.1404 37.8585 22.8309 37.6369 23.4082 37.2261C23.993 36.7989 24.4365 36.2074 24.6797 35.5239L26.1483 31.0121C26.5243 29.8808 27.1585 28.8526 28.0008 28.009C28.8432 27.1654 29.8703 26.5296 31.001 26.1521L35.5712 24.6733C36.2469 24.4287 36.8288 23.9781 37.2349 23.3852C37.641 22.7922 37.8509 22.0868 37.8349 21.3682C37.8189 20.6497 37.5779 19.9543 37.1459 19.3799C36.7138 18.8056 36.1125 18.3814 35.4266 18.167L30.909 16.6948C29.7771 16.3195 28.7483 15.6854 27.9042 14.8429C27.0601 14.0003 26.424 12.9726 26.0464 11.8413L24.5614 7.28028C24.3223 6.60832 23.8797 6.02762 23.2952 5.61895C22.7107 5.21029 22.0134 4.99398 21.3003 5.00013C20.5872 5.00627 19.8938 5.23456 19.3164 5.65324C18.7391 6.07192 18.3066 6.66016 18.079 7.33614L16.5775 11.9366C16.2015 13.0375 15.5802 14.0384 14.7606 14.8639C13.9409 15.6893 12.9444 16.3177 11.8464 16.7014L7.27951 18.1702C6.60793 18.4099 6.02763 18.8528 5.61916 19.4373C5.2107 20.0219 4.99433 20.7191 5.00011 21.4323C5.00589 22.1454 5.23353 22.8391 5.65141 23.4169C6.0693 23.9948 6.65671 24.4282 7.33208 24.6569L11.8464 26.1192C12.983 26.4973 14.0153 27.1365 14.8603 27.9857C15.7053 28.8348 16.3396 29.8702 16.7123 31.0088L18.1973 35.5797C18.4339 36.2501 18.8741 36.8284 19.4524 37.2359ZM19.7317 12.8698L21.4631 8.34496L22.9088 12.8698C23.4462 14.49 24.3551 15.962 25.5628 17.1681C26.7705 18.3743 28.2436 19.2813 29.8642 19.8166L34.4837 21.5582L29.9431 23.027C28.3242 23.5671 26.8534 24.477 25.6472 25.6845C24.441 26.892 23.5327 28.3639 22.9942 29.9836L21.2759 34.5118L19.8007 29.9803C19.271 28.3606 18.371 26.8867 17.1722 25.6756C15.9608 24.465 14.4853 23.5517 12.8616 23.0073L8.33416 21.292L12.8879 19.8133C14.4868 19.2596 15.937 18.3455 17.1262 17.1417C18.3065 15.9331 19.1973 14.4725 19.7317 12.8698ZM39.6157 50.5181C39.9517 50.7544 40.3382 50.9093 40.7444 50.9705C41.1507 51.0317 41.5656 50.9975 41.9563 50.8706C42.3471 50.7437 42.703 50.5277 42.9958 50.2395C43.2887 49.9513 43.5105 49.599 43.6437 49.2103L44.4585 46.7063C44.6339 46.1869 44.9262 45.7148 45.3128 45.3262C45.7005 44.9318 46.1736 44.6427 46.6927 44.4718L49.2291 43.6437C49.7525 43.463 50.2055 43.1217 50.5235 42.6683C50.8414 42.2149 51.0081 41.6727 50.9997 41.1189C50.9913 40.5652 50.8083 40.0283 50.4768 39.5847C50.1453 39.1412 49.6822 38.8137 49.1536 38.6489L46.6434 37.8274C46.1238 37.6547 45.6515 37.3635 45.2638 36.9768C44.876 36.5901 44.5835 36.1186 44.4093 35.5995L43.5813 33.0593C43.4035 32.5369 43.0658 32.0837 42.6161 31.7639C42.1664 31.4441 41.6275 31.274 41.0757 31.2776C40.524 31.2812 39.9873 31.4585 39.5419 31.7841C39.0964 32.1098 38.7648 32.5675 38.5939 33.0922L37.7823 35.5962C37.6151 36.1115 37.3308 36.5812 36.9517 36.9683C36.5727 37.3554 36.1091 37.6494 35.5975 37.8274L33.0578 38.6555C32.5352 38.8326 32.0816 39.1698 31.7613 39.6191C31.441 40.0684 31.2701 40.6072 31.2731 41.1591C31.276 41.7109 31.4524 42.2479 31.7775 42.6938C32.1025 43.1398 32.5596 43.4721 33.084 43.6437L35.5909 44.4554C36.1166 44.6328 36.5897 44.9253 36.9774 45.313C37.3684 45.7041 37.6575 46.1773 37.8251 46.6997L38.6563 49.2431C38.8363 49.7573 39.1715 50.2028 39.6157 50.5181ZM36.616 41.3402L36.0279 41.1496L36.6324 40.9393C37.6263 40.5899 38.5276 40.0186 39.2677 39.2687C40.0078 38.5188 40.5672 37.6101 40.9036 36.6116L41.0942 36.0266L41.2913 36.6214C41.6263 37.6288 42.1915 38.5442 42.942 39.2948C43.6926 40.0455 44.6078 40.6108 45.615 40.9459L46.2557 41.1529L45.6643 41.3501C44.6548 41.6855 43.7378 42.2525 42.9865 43.0056C42.2352 43.7588 41.6704 44.6772 41.3373 45.6876L41.1434 46.2824L40.9529 45.6909C40.6203 44.6775 40.0547 43.7563 39.3015 43.0012C38.5483 42.2462 37.6285 41.6784 36.616 41.3435V41.3402Z" fill="#2075F3"/>
</svg>
