<svg width="131" height="130" viewBox="0 0 131 130" fill="none" xmlns="http://www.w3.org/2000/svg">
<g clip-path="url(#clip0_147_2544)">
<path d="M3.52019 0H0V3.48704H3.52019V0Z" fill="#F47333"/>
<path d="M21.7304 0H18.2102V3.48704H21.7304V0Z" fill="#F47333"/>
<path d="M39.9406 0H36.4204V3.48704H39.9406V0Z" fill="#F47333"/>
<path d="M58.1508 0H54.6306V3.48704H58.1508V0Z" fill="#F47333"/>
<path d="M76.361 0H72.8408V3.48704H76.361V0Z" fill="#F47333"/>
<path d="M94.5796 0H91.0594V3.48704H94.5796V0Z" fill="#F47333"/>
<path d="M112.79 0H109.27V3.48704H112.79V0Z" fill="#F47333"/>
<path d="M131 0H127.48V3.48704H131V0Z" fill="#F47333"/>
<path d="M3.52019 0H0V3.48704H3.52019V0Z" fill="#F47333"/>
<path d="M21.7304 0H18.2102V3.48704H21.7304V0Z" fill="#F47333"/>
<path d="M39.9406 0H36.4204V3.48704H39.9406V0Z" fill="#F47333"/>
<path d="M58.1508 0H54.6306V3.48704H58.1508V0Z" fill="#F47333"/>
<path d="M76.361 0H72.8408V3.48704H76.361V0Z" fill="#F47333"/>
<path d="M94.5796 0H91.0594V3.48704H94.5796V0Z" fill="#F47333"/>
<path d="M112.79 0H109.27V3.48704H112.79V0Z" fill="#F47333"/>
<path d="M131 0H127.48V3.48704H131V0Z" fill="#F47333"/>
<path d="M21.7304 18.0769H18.2102V21.5639H21.7304V18.0769Z" fill="#F47333"/>
<path d="M39.9406 18.0769H36.4204V21.5639H39.9406V18.0769Z" fill="#F47333"/>
<path d="M58.1508 18.0769H54.6306V21.5639H58.1508V18.0769Z" fill="#F47333"/>
<path d="M76.361 18.0769H72.8408V21.5639H76.361V18.0769Z" fill="#F47333"/>
<path d="M94.5796 18.0769H91.0594V21.5639H94.5796V18.0769Z" fill="#F47333"/>
<path d="M112.79 18.0769H109.27V21.5639H112.79V18.0769Z" fill="#F47333"/>
<path d="M131 18.0769H127.48V21.5639H131V18.0769Z" fill="#F47333"/>
<path d="M21.7304 18.0769H18.2102V21.5639H21.7304V18.0769Z" fill="#F47333"/>
<path d="M39.9406 18.0769H36.4204V21.5639H39.9406V18.0769Z" fill="#F47333"/>
<path d="M58.1508 18.0769H54.6306V21.5639H58.1508V18.0769Z" fill="#F47333"/>
<path d="M76.361 18.0769H72.8408V21.5639H76.361V18.0769Z" fill="#F47333"/>
<path d="M94.5796 18.0769H91.0594V21.5639H94.5796V18.0769Z" fill="#F47333"/>
<path d="M112.79 18.0769H109.27V21.5639H112.79V18.0769Z" fill="#F47333"/>
<path d="M131 18.0769H127.48V21.5639H131V18.0769Z" fill="#F47333"/>
<path d="M21.7304 36.1453H18.2102V39.6323H21.7304V36.1453Z" fill="#F47333"/>
<path d="M39.9406 36.1453H36.4204V39.6323H39.9406V36.1453Z" fill="#F47333"/>
<path d="M58.1508 36.1453H54.6306V39.6323H58.1508V36.1453Z" fill="#F47333"/>
<path d="M76.361 36.1453H72.8408V39.6323H76.361V36.1453Z" fill="#F47333"/>
<path d="M94.5796 36.1453H91.0594V39.6323H94.5796V36.1453Z" fill="#F47333"/>
<path d="M112.79 36.1453H109.27V39.6323H112.79V36.1453Z" fill="#F47333"/>
<path d="M131 36.1453H127.48V39.6323H131V36.1453Z" fill="#F47333"/>
<path d="M21.7304 36.1453H18.2102V39.6323H21.7304V36.1453Z" fill="#F47333"/>
<path d="M39.9406 36.1453H36.4204V39.6323H39.9406V36.1453Z" fill="#F47333"/>
<path d="M58.1508 36.1453H54.6306V39.6323H58.1508V36.1453Z" fill="#F47333"/>
<path d="M76.361 36.1453H72.8408V39.6323H76.361V36.1453Z" fill="#F47333"/>
<path d="M94.5796 36.1453H91.0594V39.6323H94.5796V36.1453Z" fill="#F47333"/>
<path d="M112.79 36.1453H109.27V39.6323H112.79V36.1453Z" fill="#F47333"/>
<path d="M131 36.1453H127.48V39.6323H131V36.1453Z" fill="#F47333"/>
<path d="M21.7304 54.2222H18.2102V57.7092H21.7304V54.2222Z" fill="#F47333"/>
<path d="M39.9406 54.2222H36.4204V57.7092H39.9406V54.2222Z" fill="#F47333"/>
<path d="M58.1508 54.2222H54.6306V57.7092H58.1508V54.2222Z" fill="#F47333"/>
<path d="M76.361 54.2222H72.8408V57.7092H76.361V54.2222Z" fill="#F47333"/>
<path d="M94.5796 54.2222H91.0594V57.7092H94.5796V54.2222Z" fill="#F47333"/>
<path d="M112.79 54.2222H109.27V57.7092H112.79V54.2222Z" fill="#F47333"/>
<path d="M131 54.2222H127.48V57.7092H131V54.2222Z" fill="#F47333"/>
<path d="M21.7304 54.2222H18.2102V57.7092H21.7304V54.2222Z" fill="#F47333"/>
<path d="M39.9406 54.2222H36.4204V57.7092H39.9406V54.2222Z" fill="#F47333"/>
<path d="M58.1508 54.2222H54.6306V57.7092H58.1508V54.2222Z" fill="#F47333"/>
<path d="M76.361 54.2222H72.8408V57.7092H76.361V54.2222Z" fill="#F47333"/>
<path d="M94.5796 54.2222H91.0594V57.7092H94.5796V54.2222Z" fill="#F47333"/>
<path d="M112.79 54.2222H109.27V57.7092H112.79V54.2222Z" fill="#F47333"/>
<path d="M131 54.2222H127.48V57.7092H131V54.2222Z" fill="#F47333"/>
<path d="M21.7304 72.2908H18.2102V75.7778H21.7304V72.2908Z" fill="#F47333"/>
<path d="M39.9406 72.2908H36.4204V75.7778H39.9406V72.2908Z" fill="#F47333"/>
<path d="M58.1508 72.2908H54.6306V75.7778H58.1508V72.2908Z" fill="#F47333"/>
<path d="M76.361 72.2908H72.8408V75.7778H76.361V72.2908Z" fill="#F47333"/>
<path d="M94.5796 72.2908H91.0594V75.7778H94.5796V72.2908Z" fill="#F47333"/>
<path d="M112.79 72.2908H109.27V75.7778H112.79V72.2908Z" fill="#F47333"/>
<path d="M131 72.2908H127.48V75.7778H131V72.2908Z" fill="#F47333"/>
<path d="M21.7304 72.2908H18.2102V75.7778H21.7304V72.2908Z" fill="#F47333"/>
<path d="M39.9406 72.2908H36.4204V75.7778H39.9406V72.2908Z" fill="#F47333"/>
<path d="M58.1508 72.2908H54.6306V75.7778H58.1508V72.2908Z" fill="#F47333"/>
<path d="M76.361 72.2908H72.8408V75.7778H76.361V72.2908Z" fill="#F47333"/>
<path d="M94.5796 72.2908H91.0594V75.7778H94.5796V72.2908Z" fill="#F47333"/>
<path d="M112.79 72.2908H109.27V75.7778H112.79V72.2908Z" fill="#F47333"/>
<path d="M131 72.2908H127.48V75.7778H131V72.2908Z" fill="#F47333"/>
<path d="M21.7304 90.3677H18.2102V93.8547H21.7304V90.3677Z" fill="#F47333"/>
<path d="M39.9406 90.3677H36.4204V93.8547H39.9406V90.3677Z" fill="#F47333"/>
<path d="M58.1508 90.3677H54.6306V93.8547H58.1508V90.3677Z" fill="#F47333"/>
<path d="M76.361 90.3677H72.8408V93.8547H76.361V90.3677Z" fill="#F47333"/>
<path d="M94.5796 90.3677H91.0594V93.8547H94.5796V90.3677Z" fill="#F47333"/>
<path d="M112.79 90.3677H109.27V93.8547H112.79V90.3677Z" fill="#F47333"/>
<path d="M131 90.3677H127.48V93.8547H131V90.3677Z" fill="#F47333"/>
<path d="M21.7304 90.3677H18.2102V93.8547H21.7304V90.3677Z" fill="#F47333"/>
<path d="M39.9406 90.3677H36.4204V93.8547H39.9406V90.3677Z" fill="#F47333"/>
<path d="M58.1508 90.3677H54.6306V93.8547H58.1508V90.3677Z" fill="#F47333"/>
<path d="M76.361 90.3677H72.8408V93.8547H76.361V90.3677Z" fill="#F47333"/>
<path d="M94.5796 90.3677H91.0594V93.8547H94.5796V90.3677Z" fill="#F47333"/>
<path d="M112.79 90.3677H109.27V93.8547H112.79V90.3677Z" fill="#F47333"/>
<path d="M131 90.3677H127.48V93.8547H131V90.3677Z" fill="#F47333"/>
<path d="M21.7304 108.436H18.2102V111.923H21.7304V108.436Z" fill="#F47333"/>
<path d="M39.9406 108.436H36.4204V111.923H39.9406V108.436Z" fill="#F47333"/>
<path d="M58.1508 108.436H54.6306V111.923H58.1508V108.436Z" fill="#F47333"/>
<path d="M76.361 108.436H72.8408V111.923H76.361V108.436Z" fill="#F47333"/>
<path d="M94.5796 108.436H91.0594V111.923H94.5796V108.436Z" fill="#F47333"/>
<path d="M112.79 108.436H109.27V111.923H112.79V108.436Z" fill="#F47333"/>
<path d="M131 108.436H127.48V111.923H131V108.436Z" fill="#F47333"/>
<path d="M21.7304 108.436H18.2102V111.923H21.7304V108.436Z" fill="#F47333"/>
<path d="M39.9406 108.436H36.4204V111.923H39.9406V108.436Z" fill="#F47333"/>
<path d="M58.1508 108.436H54.6306V111.923H58.1508V108.436Z" fill="#F47333"/>
<path d="M76.361 108.436H72.8408V111.923H76.361V108.436Z" fill="#F47333"/>
<path d="M94.5796 108.436H91.0594V111.923H94.5796V108.436Z" fill="#F47333"/>
<path d="M112.79 108.436H109.27V111.923H112.79V108.436Z" fill="#F47333"/>
<path d="M131 108.436H127.48V111.923H131V108.436Z" fill="#F47333"/>
<path d="M21.7304 126.513H18.2102V130H21.7304V126.513Z" fill="#F47333"/>
<path d="M39.9406 126.513H36.4204V130H39.9406V126.513Z" fill="#F47333"/>
<path d="M58.1508 126.513H54.6306V130H58.1508V126.513Z" fill="#F47333"/>
<path d="M76.361 126.513H72.8408V130H76.361V126.513Z" fill="#F47333"/>
<path d="M94.5796 126.513H91.0594V130H94.5796V126.513Z" fill="#F47333"/>
<path d="M112.79 126.513H109.27V130H112.79V126.513Z" fill="#F47333"/>
<path d="M131 126.513H127.48V130H131V126.513Z" fill="#F47333"/>
<path d="M21.7304 126.513H18.2102V130H21.7304V126.513Z" fill="#F47333"/>
<path d="M39.9406 126.513H36.4204V130H39.9406V126.513Z" fill="#F47333"/>
<path d="M58.1508 126.513H54.6306V130H58.1508V126.513Z" fill="#F47333"/>
<path d="M76.361 126.513H72.8408V130H76.361V126.513Z" fill="#F47333"/>
<path d="M94.5796 126.513H91.0594V130H94.5796V126.513Z" fill="#F47333"/>
<path d="M112.79 126.513H109.27V130H112.79V126.513Z" fill="#F47333"/>
<path d="M131 126.513H127.48V130H131V126.513Z" fill="#F47333"/>
<path d="M3.52014 3.48704V0L-4.48227e-05 0V3.48704H3.52014Z" fill="#F47333"/>
<path d="M3.52014 21.5554V18.0684H-4.43459e-05V21.5554H3.52014Z" fill="#F47333"/>
<path d="M3.52014 39.6323V36.1453H-4.43459e-05V39.6323H3.52014Z" fill="#F47333"/>
<path d="M3.52014 57.7009V54.2139H-4.76837e-05V57.7009H3.52014Z" fill="#F47333"/>
<path d="M3.52014 75.7778V72.2908H-4.12464e-05V75.7778H3.52014Z" fill="#F47333"/>
<path d="M3.51172 93.8547V90.3677H-0.00847054V93.8547H3.51172Z" fill="#F47333"/>
<path d="M3.52014 111.923V108.436H-4.76837e-05V111.923H3.52014Z" fill="#F47333"/>
<path d="M3.51172 130V126.513H-0.00847054V130H3.51172Z" fill="#F47333"/>
</g>
<defs>
<clipPath id="clip0_147_2544">
<rect width="131" height="130" fill="white"/>
</clipPath>
</defs>
</svg>
