<svg width="600" height="380" viewBox="0 0 600 380" fill="none" xmlns="http://www.w3.org/2000/svg">
<g clip-path="url(#clip0_146_2295)">
<path d="M528.818 325.448C568.023 286.243 568.023 222.68 528.818 183.475C489.614 144.27 426.05 144.27 386.846 183.475C347.641 222.68 347.641 286.243 386.846 325.448C426.05 364.653 489.614 364.653 528.818 325.448Z" fill="#FFC8B3"/>
<path d="M221.497 40.3244L220.023 38.7493C222.614 36.9828 224.753 34.6486 226.483 31.6974L228.698 32.0348C228.409 32.56 228.101 33.0549 227.792 33.5598L235.401 33.0782L235.504 34.7202C234.745 35.7975 234.009 36.7352 233.256 37.5126L238.472 37.1807L238.939 44.4996L233.783 44.8225L234.043 48.9675C234.091 49.6484 234.386 49.9735 234.946 49.9429L238.411 49.7214C238.731 49.6968 238.944 49.5304 239.069 49.2424C239.234 48.9152 239.28 47.9658 239.227 46.3947L241.318 46.9301C241.28 49.2198 241.096 50.5869 240.708 51.0704C240.351 51.5044 239.767 51.7446 238.946 51.8007L234.41 52.0842C232.838 52.1876 232.002 51.3434 231.892 49.5613L231.6 44.9557L230.799 45.0022C230.692 45.4204 230.555 45.8182 230.399 46.1956C229.374 48.8687 226.713 51.2341 222.359 53.2508L220.885 51.6557C224.715 49.9501 227.148 47.981 228.246 45.7892C228.32 45.5504 228.423 45.3421 228.506 45.1535L223.08 45.5019L222.693 39.3745C222.328 39.6984 221.912 40.0214 221.497 40.3244ZM232.735 35.2235L226.347 35.6257C225.622 36.5135 224.898 37.3414 224.125 38.0985L230.553 37.687C231.285 36.9592 232.009 36.1314 232.735 35.2235ZM229.317 39.7864L224.872 40.0714L225.076 43.3553L229.071 43.1027C229.228 42.0752 229.317 40.9766 229.317 39.7864ZM236.546 39.3284L231.49 39.6531C231.52 40.8438 231.451 41.9428 231.314 42.9606L236.76 42.6125L236.546 39.3284Z" fill="#3C4246"/>
<path d="M258.22 35.724L264.197 35.3449C264.291 36.8767 264.175 37.8649 263.857 38.2996C263.54 38.7343 262.755 38.9911 261.523 39.0903C261.093 39.123 260.653 39.1256 260.243 39.1286L259.823 37.9214C260.323 37.9098 260.783 37.9076 261.214 37.8749C261.855 37.8357 262.236 37.7421 262.359 37.5942C262.461 37.4459 262.515 37.2168 262.5 36.9465L258.305 37.2156L258.44 39.2882L256.407 39.4139L256.272 37.3413L252.718 37.5713C252.429 38.0965 252.051 38.5502 251.574 38.9522C250.895 39.5008 249.947 39.9749 248.74 40.3946L262.667 39.5096L263.189 47.6696L259.174 47.9219C261.521 48.1415 263.805 48.4701 266.018 48.9276L265.46 50.6084C262.801 49.9034 260.079 49.4373 257.223 49.1591L257.742 48.0077L252.676 48.3322L253.519 49.3366C251.863 50.2687 249.439 51.0879 246.286 51.8148L245.272 50.2974C248.122 49.7055 250.323 49.0825 251.905 48.3892L248.121 48.6253L247.624 40.7358C247.132 40.8575 246.639 41.0092 246.097 41.13L245.12 39.7733C247.529 39.234 249.149 38.6512 249.98 38.0252C250.112 37.9274 250.223 37.8293 250.325 37.731L245.769 38.0241L246.346 34.0732L251.152 33.7644L251.089 32.7831L245.682 33.1219L245.579 31.5299L250.985 31.1912L250.93 30.3001L252.933 30.1739L252.988 31.065L255.881 30.8838L255.826 29.9928L257.859 29.8671L257.914 30.7581L263 30.434L263.252 34.4488L258.166 34.743L258.22 35.724ZM247.807 36.3882L251.181 36.1752C251.215 35.9657 251.248 35.7563 251.252 35.5563L251.228 35.1958L248.014 35.4016L247.807 36.3882ZM260.786 41.8782L260.731 41.0072L249.718 41.7113L249.773 42.5823L260.786 41.8782ZM260.93 44.0509L260.874 43.2299L249.86 43.934L249.916 44.7551L260.93 44.0509ZM261.007 45.3725L249.994 46.0766L250.048 46.9876L261.062 46.2835L261.007 45.3725ZM253.145 33.628L256.038 33.4468L255.975 32.4656L253.081 32.6468L253.145 33.628ZM253.264 35.4203L253.234 36.0398L256.197 35.8499L256.134 34.8687L253.241 35.0498L253.264 35.4203ZM258.071 33.3111L261.355 33.1066L261.291 32.1254L258.007 32.3299L258.071 33.3111Z" fill="#3C4246"/>
<path d="M271.66 31.6904C271.313 30.9344 270.945 30.1981 270.557 29.5115L272.569 28.8153C273.042 29.8135 273.426 30.7301 273.682 31.5645L276.556 31.383L276.682 33.3855L268.792 33.8823L268.666 31.8799L271.66 31.6904ZM275.917 34.8527L276.036 36.725L269.878 37.1211L269.76 35.2488L275.917 34.8527ZM276.114 38.0265L276.232 39.9188L270.074 40.3148L269.956 38.4226L276.114 38.0265ZM276.891 47.0409C278.675 45.6509 280.013 44.0032 280.855 42.1172L277.301 42.3472L277.165 40.2946L282.272 39.9708L282.161 38.2387L277.826 38.5155L277.259 29.3946L288.023 28.7063L288.599 37.8273L284.263 38.1042L284.374 39.8363L289.571 39.504L289.706 41.5566L286.101 41.7857C287.132 43.5334 288.667 45.0595 290.745 46.3648L289.464 48.1834C287.194 46.3548 285.559 44.3169 284.517 42.019L284.976 49.2178L282.883 49.3525L282.432 42.3138C281.548 44.9093 280.081 47.1048 278 48.9099L276.916 47.3514L276.98 48.3326L272.444 48.6161L272.523 49.8676L270.47 50.0029L269.949 41.8229L276.537 41.4041L276.891 47.0409ZM274.829 46.556L274.632 43.4523L272.129 43.61L272.326 46.7138L274.829 46.556ZM281.822 32.8122L281.713 31.0301L279.41 31.1812L279.52 32.9633L281.822 32.8122ZM281.943 34.5645L279.64 34.7156L279.75 36.4977L282.053 36.3466L281.943 34.5645ZM283.925 32.6777L286.248 32.5269L286.138 30.7448L283.815 30.8956L283.925 32.6777ZM286.358 34.279L284.035 34.4298L284.145 36.2119L286.468 36.0611L286.358 34.279Z" fill="#3C4246"/>
<path d="M296.864 33.456L296.691 30.6727C295.788 30.8475 294.885 31.0122 293.972 31.1668L293.436 29.1675C296.243 28.7548 298.724 28.1167 300.888 27.2931L301.775 29.2983C300.809 29.6321 299.804 29.9251 298.719 30.1969L298.916 33.3206L301.579 33.1556L301.705 35.188L299.042 35.3531L299.105 36.3543C300.19 37.2427 301.284 38.2313 302.406 39.3004L301.313 41.2022C300.513 40.0586 299.828 39.1169 299.231 38.3767L299.855 48.1786L297.803 48.314L297.194 38.7823C296.59 40.7724 295.789 42.5992 294.791 44.2725L293.68 41.9134C295.163 39.9882 296.169 37.8449 296.729 35.494L293.836 35.6752L293.71 33.6428L296.864 33.456ZM307.267 40.4627L307.125 38.18C305.722 38.3863 304.288 38.5921 302.795 38.7769L302.286 36.8881C306.334 36.4464 309.915 35.8767 313.047 35.1495L313.827 36.933C312.382 37.2486 310.846 37.5527 309.211 37.8451L309.369 40.3282L313.955 40.0356L314.082 41.968L309.497 42.2606L309.662 44.9038L315.039 44.5645L315.166 46.5069L302.38 47.3211L302.253 45.3787L307.57 45.0384L307.404 42.3953L302.909 42.6794L302.781 40.747L307.267 40.4627ZM312.603 27.1009L313.047 34.0094L303.034 34.6504L302.591 27.7419L312.603 27.1009ZM310.618 29.1477L304.801 29.5195L305 32.5733L310.817 32.2015L310.618 29.1477Z" fill="#3C4246"/>
<path d="M319.991 32.0365L318.069 30.9639C319.287 29.2842 320.117 27.538 320.569 25.6754L322.653 26.0006C322.546 26.4189 322.409 26.8366 322.302 27.2549L327.749 26.9068L327.858 28.7089L324.344 28.9296C324.884 29.5588 325.343 30.1666 325.694 30.7426L323.779 31.5704C323.284 30.6819 322.708 29.8521 322.061 29.0711L321.601 29.1033C321.153 30.1459 320.616 31.1269 319.991 32.0365ZM327.541 35.6445L327.432 33.8424L319.542 34.3393L319.424 32.467L327.313 31.9702L327.235 30.6687L329.378 30.5348L329.456 31.8363L337.365 31.3298L337.484 33.2021L329.574 33.7086L329.684 35.5107L336.632 35.068L336.751 36.9402L334.698 37.0756L334.808 38.8577L338.843 38.6058L338.981 40.4884L334.946 40.7403L335.143 43.8641C335.239 45.2959 334.486 46.0833 332.914 46.1768L329.72 46.3829L329.114 44.3623C330.164 44.3901 331.154 44.3968 332.065 44.3322C332.706 44.293 333.001 43.9979 332.97 43.4673L332.804 40.8741L318.967 41.7506L318.849 39.8583L332.686 38.9819L332.576 37.1998L320.811 37.9512L320.693 36.0789L327.541 35.6445ZM327.158 44.6894L325.547 45.9623C324.802 45.0496 323.829 44.053 322.616 42.9924L324.277 41.7903C325.509 42.8712 326.463 43.8375 327.158 44.6894ZM329.758 30.5212L327.914 29.54C328.808 28.1349 329.423 26.655 329.74 25.0802L331.795 25.3849C331.688 25.8032 331.601 26.2217 331.484 26.6198L337.682 26.2244L337.791 28.0265L334.167 28.2554C334.716 28.9047 335.165 29.5424 335.496 30.1181L333.651 30.9471C333.136 30.0682 332.561 29.2084 331.914 28.4073L330.823 28.4789C330.501 29.1936 330.159 29.8779 329.758 30.5212Z" fill="#3C4246"/>
<path d="M343.22 35.8394L342.368 33.5847C344.575 30.7916 346.13 27.5974 347.02 24.0219L349.107 24.8472C348.626 26.6594 347.986 28.4188 347.128 30.0746L348.092 45.213L345.93 45.3465L345.163 33.3319C344.558 34.2018 343.904 35.0208 343.22 35.8394ZM350.083 33.325L348.141 32.282C349.686 29.6377 350.723 26.8548 351.243 23.8932L353.298 24.1979C353.145 24.9655 352.983 25.7028 352.801 26.3999L362.372 25.7914L362.459 27.2031C362.185 28.5986 361.831 29.9929 361.378 31.3954L359.265 30.9397C359.67 30.0864 360.016 29.1021 360.274 28.0363L352.184 28.5498C351.605 30.2702 350.909 31.8487 350.083 33.325ZM353.449 33.6318C352.855 36.8323 351.997 39.6282 350.876 42.0796L348.806 41.4745C349.883 39.2824 350.78 36.5172 351.486 33.1986L353.449 33.6318ZM352.921 44.7445L352.315 42.724C353.255 42.7598 354.145 42.7649 354.996 42.7092C355.546 42.6785 355.802 42.3628 355.762 41.772L355.02 30.0278L357.112 29.8932L357.895 42.1781C357.99 43.6599 357.306 44.4585 355.845 44.5538L352.921 44.7445ZM363.91 40.7795L362.073 41.7686C360.997 38.52 359.855 35.6603 358.647 33.1796L360.52 32.4211C361.777 35.0027 362.91 37.7922 363.91 40.7795Z" fill="#3C4246"/>
<path d="M368.134 28.6988L366.931 27.0783C371.015 25.717 374.113 24.1091 376.264 22.2552L377.976 22.1441C379.921 23.6271 383.162 24.812 387.707 25.7589L386.717 27.5124C384.834 27.1006 383.181 26.6426 381.73 26.088L381.769 26.7288L372.789 27.2972L372.748 26.7064C371.326 27.4425 369.794 28.1068 368.134 28.6988ZM385.857 33.4288C383.91 33.8259 381.673 34.1982 379.108 34.4949L379.178 35.6563L386.247 35.2056L386.341 36.7574L379.272 37.2081L379.344 38.2795L388.005 37.7257L388.115 39.4578L379.455 40.0116L379.526 41.103C379.613 42.4746 378.881 43.2024 377.359 43.2967L374.626 43.4705L374.066 41.6608C374.966 41.696 375.806 41.6902 376.587 41.6334C377.138 41.6027 377.413 41.3073 377.381 40.7867L377.342 40.1459L368.181 40.7313L368.07 38.9992L377.231 38.4138L377.159 37.3424L369.821 37.8086L369.727 36.2568L377.066 35.7906L376.994 34.7193C374.9 34.9439 372.626 35.1356 370.163 35.294L369.51 33.7127C375.617 33.3258 380.758 32.7426 384.921 32.0028L385.857 33.4288ZM384.287 27.5114L384.547 31.6364L370.64 32.5217L370.38 28.3967L384.287 27.5114ZM382.329 29.1486L372.527 29.7731L372.597 30.9145L382.399 30.2899L382.329 29.1486ZM377.2 23.7012C376.378 24.4174 375.476 25.0723 374.506 25.676L379.933 25.3276C378.871 24.8296 377.97 24.2943 377.2 23.7012Z" fill="#3C4246"/>
<path d="M192.203 40.3336L191.456 40.9985L214.81 67.2274L215.557 66.5625L192.203 40.3336Z" fill="#3C4246"/>
<path d="M409.849 26.5142L390.002 55.4873L390.827 56.0524L410.674 27.0793L409.849 26.5142Z" fill="#3C4246"/>
<path d="M492.586 63.386L134.921 86.119C134.929 86.2492 134.957 86.3697 134.965 86.4998C135.454 94.2592 129.72 100.953 122.065 101.754L135.868 319.038C143.572 318.858 150.103 324.779 150.602 332.529C150.61 332.659 150.598 332.779 150.606 332.909L508.27 310.186C514.898 309.768 519.926 304.052 519.508 297.424L505.348 74.6331C504.93 68.0051 499.214 62.9678 492.586 63.386Z" fill="#DCECFF"/>
<path d="M492.586 63.386L134.921 86.119C134.929 86.2492 134.957 86.3697 134.965 86.4998C135.454 94.2592 129.72 100.953 122.065 101.754L135.868 319.038C143.572 318.858 150.103 324.779 150.602 332.529C150.61 332.659 150.598 332.779 150.606 332.909L508.27 310.186C514.898 309.768 519.926 304.052 519.508 297.424L505.348 74.6331C504.93 68.0051 499.214 62.9678 492.586 63.386Z" fill="#EEF6FF"/>
<path d="M150.127 333.441L150.108 332.741C150.109 332.681 150.11 332.621 150.101 332.561C149.628 325.081 143.374 319.355 135.879 319.538L135.399 319.55L121.533 101.295L122.014 101.243C129.478 100.469 134.948 94.0006 134.474 86.5215C134.475 86.4615 134.466 86.4014 134.457 86.3412L134.389 85.64L134.9 85.6086L492.565 62.8855C495.908 62.682 499.12 63.7764 501.633 65.9891C504.146 68.2019 505.645 71.2576 505.859 74.5917L520.019 297.373C520.232 300.707 519.128 303.928 516.915 306.441C514.702 308.954 511.646 310.453 508.312 310.667L150.127 333.441ZM136.477 318.528C144.195 318.659 150.536 324.617 151.095 332.377L508.239 309.685C511.313 309.487 514.126 308.115 516.156 305.799C518.185 303.482 519.205 300.519 519.007 297.456L504.847 74.6646C504.649 71.5908 503.277 68.7773 500.961 66.7479C498.644 64.7184 495.681 63.6983 492.617 63.8965L135.474 86.5784C135.912 94.3869 130.307 101.133 122.598 102.183L136.347 318.526C136.387 318.527 136.427 318.528 136.477 318.528Z" fill="#B9C0C6"/>
<path d="M121.797 334.353C121.291 326.403 127.328 319.544 135.288 319.038C135.488 319.022 135.678 319.035 135.878 319.028L122.066 101.744C121.875 101.761 121.675 101.797 121.484 101.814C113.535 102.32 106.676 96.2833 106.17 88.3236C106.162 88.1935 106.174 88.0736 106.166 87.9435L43.7304 91.9097C37.1024 92.3278 32.0752 98.0437 32.4933 104.672L46.653 327.453C47.0712 334.081 52.7871 339.108 59.4151 338.69L121.841 334.723C121.833 334.603 121.805 334.483 121.797 334.353Z" fill="#8BBAFF"/>
<path d="M58.4259 339.223C51.9768 339.114 46.5617 334.042 46.1422 327.494L31.9927 104.703C31.5589 97.815 36.8105 91.8428 43.6989 91.4091L106.635 87.4114L106.653 88.1218C106.652 88.1818 106.651 88.2418 106.66 88.2919C107.151 95.9613 113.783 101.804 121.443 101.313C121.553 101.305 121.653 101.297 121.763 101.279L122.525 101.192L122.556 101.712L136.4 319.517L135.639 319.534C135.529 319.532 135.419 319.531 135.309 319.539C131.595 319.776 128.196 321.439 125.739 324.238C123.281 327.037 122.05 330.616 122.288 334.331C122.287 334.391 122.296 334.451 122.305 334.511L122.373 335.213L59.4363 339.21C59.106 339.225 58.7659 339.229 58.4259 339.223ZM105.677 88.4754L43.7619 92.4103C37.4242 92.8133 32.5909 98.3025 32.9939 104.64L47.1536 327.421C47.5566 333.759 53.0358 338.592 59.3835 338.189L121.289 334.254C121.065 330.32 122.38 326.521 124.99 323.565C127.621 320.569 131.272 318.78 135.246 318.528C135.276 318.528 135.306 318.529 135.337 318.519L121.596 102.306C121.566 102.306 121.536 102.315 121.506 102.315C113.326 102.827 106.26 96.6364 105.677 88.4754Z" fill="#B9C0C6"/>
<path d="M110.651 307.371C110.611 306.81 111.029 306.337 111.579 306.306C112.13 306.275 112.603 306.693 112.644 307.244C112.674 307.795 112.256 308.268 111.706 308.299C111.676 308.308 111.656 308.308 111.626 308.307C111.116 308.299 110.682 307.891 110.651 307.371ZM110.273 301.373C110.232 300.823 110.65 300.35 111.21 300.319C111.761 300.278 112.234 300.706 112.265 301.257C112.295 301.808 111.877 302.281 111.327 302.311C111.307 302.321 111.277 302.32 111.257 302.32C110.737 302.311 110.304 301.904 110.273 301.373ZM109.894 295.386C109.863 294.836 110.281 294.363 110.832 294.332C111.382 294.291 111.855 294.719 111.886 295.26C111.927 295.821 111.508 296.294 110.958 296.324C110.928 296.324 110.898 296.333 110.878 296.333C110.358 296.324 109.925 295.917 109.894 295.386ZM109.515 289.399C109.484 288.848 109.902 288.375 110.453 288.345C111.003 288.304 111.476 288.722 111.517 289.273C111.548 289.823 111.13 290.306 110.579 290.337C110.549 290.336 110.529 290.336 110.499 290.336C109.979 290.327 109.556 289.93 109.515 289.399ZM109.146 283.412C109.105 282.861 109.523 282.388 110.074 282.357C110.634 282.317 111.107 282.735 111.138 283.285C111.169 283.836 110.751 284.319 110.2 284.35C110.18 284.349 110.15 284.349 110.12 284.348C109.61 284.34 109.177 283.942 109.146 283.412ZM108.767 277.425C108.736 276.874 109.154 276.401 109.705 276.36C110.255 276.33 110.728 276.748 110.759 277.298C110.8 277.849 110.382 278.332 109.831 278.363C109.801 278.362 109.771 278.362 109.751 278.361C109.231 278.352 108.798 277.955 108.767 277.425ZM108.388 271.437C108.357 270.887 108.775 270.414 109.326 270.373C109.877 270.342 110.35 270.76 110.39 271.311C110.421 271.862 110.003 272.335 109.452 272.375C109.422 272.375 109.402 272.375 109.372 272.374C108.852 272.365 108.419 271.968 108.388 271.437ZM108.009 265.45C107.978 264.899 108.396 264.426 108.947 264.386C109.498 264.355 109.981 264.773 110.011 265.324C110.042 265.874 109.624 266.347 109.073 266.388C109.043 266.388 109.023 266.387 108.993 266.387C108.483 266.378 108.05 265.971 108.009 265.45ZM107.64 259.463C107.599 258.912 108.027 258.439 108.568 258.398C109.129 258.368 109.602 258.786 109.632 259.337C109.673 259.887 109.255 260.36 108.694 260.401C108.674 260.401 108.644 260.4 108.624 260.4C108.104 260.391 107.671 259.984 107.64 259.463ZM107.261 253.476C107.23 252.925 107.648 252.442 108.199 252.411C108.75 252.381 109.223 252.799 109.253 253.349C109.294 253.9 108.876 254.373 108.325 254.404C108.295 254.413 108.265 254.413 108.245 254.412C107.725 254.404 107.292 253.996 107.261 253.476ZM106.882 247.488C106.851 246.938 107.27 246.455 107.82 246.424C108.371 246.393 108.844 246.811 108.884 247.362C108.915 247.913 108.497 248.386 107.947 248.417C107.916 248.426 107.896 248.426 107.866 248.425C107.346 248.416 106.923 248.009 106.882 247.488ZM106.513 241.501C106.472 240.951 106.891 240.468 107.441 240.437C107.992 240.396 108.475 240.824 108.505 241.375C108.546 241.926 108.118 242.399 107.568 242.429C107.548 242.429 107.517 242.438 107.487 242.438C106.977 242.429 106.544 242.022 106.513 241.501ZM106.134 235.504C106.104 234.953 106.522 234.48 107.072 234.45C107.623 234.409 108.096 234.827 108.127 235.388C108.167 235.938 107.749 236.411 107.199 236.442C107.169 236.442 107.139 236.441 107.119 236.441C106.599 236.432 106.165 236.035 106.134 235.504ZM105.755 229.517C105.725 228.966 106.143 228.493 106.693 228.463C107.244 228.422 107.717 228.84 107.758 229.391C107.788 229.951 107.37 230.424 106.82 230.455C106.79 230.454 106.77 230.454 106.74 230.454C106.22 230.445 105.786 230.047 105.755 229.517ZM105.386 223.53C105.346 222.979 105.764 222.506 106.315 222.465C106.865 222.435 107.348 222.853 107.379 223.403C107.42 223.954 106.991 224.437 106.441 224.468C106.421 224.467 106.391 224.467 106.361 224.466C105.841 224.458 105.418 224.05 105.386 223.53ZM105.007 217.542C104.977 216.992 105.395 216.519 105.946 216.478C106.496 216.447 106.969 216.866 107 217.416C107.041 217.967 106.622 218.45 106.072 218.481C106.042 218.48 106.012 218.48 105.982 218.479C105.472 218.47 105.039 218.063 105.007 217.542ZM104.629 211.555C104.598 211.005 105.016 210.532 105.567 210.491C106.117 210.46 106.59 210.878 106.631 211.429C106.662 211.98 106.244 212.453 105.693 212.493C105.663 212.493 105.643 212.493 105.613 212.492C105.093 212.483 104.66 212.076 104.629 211.555ZM104.26 205.568C104.219 205.017 104.637 204.544 105.188 204.504C105.738 204.473 106.221 204.891 106.252 205.442C106.283 205.992 105.865 206.465 105.314 206.506C105.294 206.506 105.264 206.505 105.234 206.505C104.724 206.496 104.291 206.089 104.26 205.568ZM103.881 199.581C103.84 199.03 104.268 198.557 104.819 198.517C105.369 198.486 105.842 198.904 105.873 199.455C105.914 200.005 105.496 200.478 104.945 200.519C104.915 200.519 104.885 200.518 104.865 200.518C104.345 200.509 103.912 200.101 103.881 199.581ZM103.502 193.594C103.471 193.043 103.889 192.57 104.44 192.529C104.99 192.499 105.463 192.917 105.504 193.467C105.535 194.018 105.117 194.491 104.566 194.522C104.536 194.531 104.506 194.531 104.486 194.53C103.966 194.522 103.533 194.114 103.502 193.594ZM103.133 187.607C103.092 187.056 103.51 186.573 104.061 186.542C104.611 186.511 105.084 186.929 105.125 187.48C105.156 188.031 104.738 188.504 104.187 188.535C104.157 188.534 104.137 188.544 104.107 188.543C103.587 188.534 103.164 188.127 103.133 187.607ZM102.754 181.619C102.713 181.059 103.131 180.586 103.692 180.555C104.243 180.524 104.716 180.932 104.746 181.493C104.777 182.044 104.359 182.517 103.808 182.547C103.788 182.547 103.758 182.556 103.728 182.556C103.218 182.547 102.785 182.14 102.754 181.619ZM102.375 175.622C102.344 175.071 102.762 174.598 103.313 174.568C103.864 174.527 104.337 174.945 104.367 175.496C104.408 176.056 103.99 176.529 103.439 176.56C103.409 176.56 103.379 176.559 103.359 176.559C102.839 176.55 102.406 176.153 102.375 175.622ZM101.996 169.635C101.965 169.084 102.383 168.611 102.934 168.58C103.485 168.54 103.958 168.958 103.999 169.509C104.029 170.069 103.611 170.542 103.06 170.573C103.03 170.572 103.01 170.572 102.98 170.572C102.46 170.563 102.027 170.165 101.996 169.635ZM101.627 163.648C101.586 163.097 102.005 162.624 102.555 162.583C103.116 162.553 103.589 162.971 103.62 163.521C103.65 164.072 103.232 164.555 102.681 164.586C102.661 164.585 102.631 164.585 102.601 164.584C102.092 164.576 101.658 164.178 101.627 163.648ZM101.248 157.66C101.218 157.11 101.636 156.637 102.186 156.596C102.737 156.565 103.21 156.983 103.241 157.534C103.281 158.085 102.863 158.558 102.313 158.599C102.283 158.598 102.253 158.598 102.223 158.597C101.713 158.588 101.279 158.181 101.248 157.66ZM100.869 151.673C100.839 151.123 101.257 150.65 101.807 150.609C102.358 150.578 102.831 150.996 102.872 151.547C102.902 152.098 102.484 152.571 101.934 152.611C101.904 152.611 101.874 152.61 101.854 152.61C101.334 152.601 100.9 152.194 100.869 151.673ZM100.49 145.686C100.46 145.135 100.878 144.662 101.428 144.622C101.979 144.591 102.462 145.009 102.493 145.56C102.523 146.11 102.105 146.583 101.555 146.624C101.525 146.624 101.505 146.623 101.475 146.623C100.965 146.614 100.532 146.207 100.49 145.686ZM100.121 139.699C100.081 139.148 100.509 138.665 101.049 138.634C101.61 138.604 102.083 139.022 102.114 139.573C102.155 140.123 101.736 140.596 101.176 140.637C101.156 140.636 101.126 140.636 101.106 140.636C100.586 140.627 100.153 140.219 100.121 139.699ZM99.7424 133.712C99.7117 133.161 100.13 132.678 100.681 132.647C101.231 132.617 101.704 133.035 101.735 133.585C101.776 134.136 101.358 134.609 100.807 134.65C100.777 134.649 100.747 134.649 100.727 134.648C100.207 134.64 99.7737 134.232 99.7424 133.712ZM99.3635 127.724C99.333 127.164 99.751 126.691 100.302 126.66C100.852 126.629 101.325 127.047 101.366 127.598C101.397 128.149 100.979 128.622 100.428 128.652C100.398 128.652 100.378 128.662 100.348 128.661C99.8279 128.652 99.4047 128.245 99.3635 127.724ZM98.9947 121.727C98.954 121.177 99.3721 120.704 99.9227 120.673C100.473 120.642 100.956 121.05 100.987 121.611C101.018 122.162 100.6 122.635 100.049 122.665C100.029 122.665 99.9989 122.674 99.9689 122.674C99.4591 122.655 99.0258 122.258 98.9947 121.727ZM98.6158 115.74C98.5851 115.189 99.0031 114.716 99.5537 114.686C100.104 114.645 100.577 115.063 100.608 115.614C100.649 116.164 100.231 116.647 99.6801 116.678C99.6501 116.678 99.6201 116.677 99.6001 116.677C99.0802 116.668 98.6468 116.271 98.6158 115.74Z" fill="white"/>
<path d="M243.131 242.169C242.291 247.506 241.06 252.315 239.518 256.52C243.098 263.111 250.222 263.492 260.624 262.897C268.063 262.423 280.136 261.167 288.44 259.807C286.984 261.912 285.486 266.528 284.889 269.278C277.292 270.25 268.398 271.02 260.058 271.549C248.143 272.308 240.546 271.47 235.663 265.106C233.292 269.287 230.476 272.6 227.353 275.097C226.124 273.226 223.028 270.013 221.158 268.812C226.9 264.618 230.884 257.904 233.243 249.063L229.389 249.308C227.807 249.411 225.646 250.035 225.005 250.704C224.608 248.717 223.057 244.64 222.305 242.947C223.491 242.597 224.682 241.957 226.119 240.411C227.197 239.3 229.662 236.081 231.999 232.74L224.28 233.229L224.604 225.284L238.521 224.399L239.368 223.993L245.18 226.261C242.544 230.187 238.297 236.437 234.666 241.256L237.629 241.066L239.155 240.762L243.131 242.169ZM234.254 224.167C232.653 221.279 229.07 216.638 226.246 213.34L233.941 208.329C236.98 211.401 240.451 215.5 242.255 218.231L234.254 224.167ZM278.716 260.563C275.831 257.273 270.392 252.401 265.356 247.985C262.191 252.982 257.317 257.951 249.722 262.333C248.435 260.331 245.396 257.319 243.122 255.731C251.462 251.651 255.783 246.933 258.098 242.472L244.872 243.309L245.258 234.104L260.546 233.132L260.801 226.925L247.235 227.786L247.609 218.651L254.497 218.218C253.289 215.717 251.63 212.698 250.36 210.347L258.965 206.531C260.835 209.543 263.474 213.759 264.74 216.39L261.866 217.752L268.614 217.326C270.487 213.657 272.312 209.227 273.491 205.747L283.424 208.035C281.793 210.987 280.082 214.019 278.467 216.692L285.145 216.265L284.77 225.4L270.713 226.293L270.459 232.499L286.238 231.495L285.862 240.7L272.426 241.554C277.349 245.557 282.866 249.931 285.964 253.004L278.716 260.563Z" fill="#3C4246"/>
<path d="M319.197 225.301C318.713 232.074 317.414 240.293 313.985 248.446C317.157 251.37 320.071 254.11 321.972 256.422L315.011 265.276C313.446 263.219 311.207 260.791 308.71 258.168C305.775 262.6 301.964 266.806 297.139 270.585C295.784 268.512 292.547 265.317 290.412 263.85C295.446 260.125 299.128 255.856 301.913 251.433C298.606 248.306 295.298 245.18 292.464 242.432C293.591 238.47 294.824 233.59 295.863 228.307L292.826 228.706L292.326 219.206L297.566 218.665C298.389 213.748 299.002 208.837 299.399 204.294L309.293 204.151C308.771 208.422 308.103 212.992 307.366 217.56L310.332 217.23L310.499 213.252L319.801 212.659L319.662 216.147L323.179 215.717L322.736 224.791L319.197 225.301ZM306.555 241.89C308.497 236.482 309.407 231.136 309.805 226.522L305.595 227.071C304.736 231.157 303.889 235.104 302.987 238.779L306.555 241.89ZM356.993 238.271L343.978 239.101L343.247 256.882C343.044 261.829 341.97 264.401 338.67 266.146C335.371 267.82 331.163 268.289 325.716 268.637C325.354 265.811 324.083 261.719 322.806 259.157C325.897 259.099 330.102 258.83 331.204 258.758C332.375 258.688 332.8 258.375 332.838 257.336L333.565 239.766L319.718 240.642L320.121 231.017L333.967 230.141L334.205 224.354C336.991 221.671 339.824 217.948 342.106 214.326L323.303 215.519L323.677 206.384L348.888 204.779L351.249 204.139L357.725 208.599C354.205 213.9 349.619 220.104 344.533 225.159L344.35 229.486L357.366 228.656L356.993 238.271Z" fill="#3C4246"/>
<path d="M380.527 245.95C379.634 244.335 378.476 242.465 377.178 240.533L376.16 265.289L367.139 265.867L368.085 242.999C366.507 244.633 364.933 246.047 363.371 247.33C362.941 244.363 361.246 238.773 360.228 236.816C365.674 232.997 370.881 226.684 374.396 219.923L362.411 220.68L362.784 211.615L371.054 211.095C369.969 209.006 368.559 206.662 367.19 204.799L374.829 199.587C376.997 202.094 379.189 205.572 380.247 208.07L376.631 210.729L379.595 210.539L381.263 210.087L386.207 213.461C384.336 218.8 381.857 224.029 378.905 228.88C380.362 230.245 382.407 232.34 384.049 234.048L384.318 227.561L425.308 224.953L425.019 231.999L384.52 234.576C385.641 235.685 386.494 236.679 386.957 237.137L380.527 245.95ZM424.859 253.92L424.555 261.246L382.324 263.933L382.627 256.607L392.479 255.983C392.065 254.476 391.57 252.977 391.072 251.689L394.705 250.35L387.746 250.792L388.354 236.151L420.663 234.096L420.056 248.738L412.957 249.188L417.72 250.209C416.695 251.732 415.6 253.193 414.656 254.577L424.859 253.92ZM423.237 223.208L386.663 225.531L387.56 203.773L396.792 203.188L397.01 197.961L404.589 197.479L404.371 202.706L407.054 202.532L407.272 197.305L414.922 196.824L414.703 202.051L424.145 201.45L423.237 223.208ZM396.115 244.403L411.824 243.408L411.945 240.41L396.236 241.405L396.115 244.403ZM394.82 219.247L397.573 219.074L397.675 216.635L394.921 216.809L394.82 219.247ZM395.142 211.432L397.895 211.258L397.997 208.82L395.243 208.993L395.142 211.432ZM399.11 250.054C399.791 251.816 400.466 253.868 400.95 255.436L406.396 255.088C407.157 253.301 408.002 251.235 408.622 249.455L399.11 250.054ZM403.802 216.239L403.701 218.677L406.384 218.503L406.485 216.064L403.802 216.239ZM406.716 210.697L406.817 208.259L404.134 208.433L404.033 210.872L406.716 210.697ZM415.306 215.513L412.623 215.688L412.522 218.126L415.205 217.952L415.306 215.513ZM415.628 207.697L412.945 207.872L412.844 210.311L415.527 210.136L415.628 207.697Z" fill="#3C4246"/>
<path d="M432.858 182.318L207.447 196.605L207.51 197.603L432.921 183.316L432.858 182.318Z" fill="#8D99A0"/>
<path d="M438.687 273.89L213.276 288.176L213.339 289.174L438.75 274.888L438.687 273.89Z" fill="#8D99A0"/>
<mask id="mask0_146_2295" style="mask-type:luminance" maskUnits="userSpaceOnUse" x="360" y="196" width="66" height="70">
<path d="M380.527 245.949C379.634 244.334 378.476 242.464 377.178 240.532L376.16 265.288L367.139 265.866L368.085 242.999C366.507 244.632 364.933 246.046 363.371 247.33C362.941 244.362 361.245 238.773 360.228 236.815C365.674 232.997 370.881 226.684 374.396 219.922L362.411 220.68L362.784 211.615L371.054 211.094C369.969 209.006 368.559 206.662 367.19 204.798L374.829 199.587C376.997 202.094 379.189 205.571 380.247 208.069L376.631 210.729L379.595 210.539L381.263 210.087L386.206 213.461C384.336 218.8 381.857 224.029 378.905 228.88C380.362 230.244 382.407 232.339 384.048 234.047L384.318 227.561L425.308 224.953L425.019 231.999L384.52 234.575C385.641 235.684 386.494 236.679 386.957 237.137L380.527 245.949ZM424.859 253.919L424.555 261.245L382.324 263.932L382.627 256.606L392.479 255.983C392.065 254.475 391.57 252.977 391.072 251.688L394.705 250.349L387.746 250.792L388.354 236.15L420.663 234.096L420.056 248.737L412.957 249.188L417.72 250.208C416.694 251.731 415.6 253.193 414.656 254.577L424.859 253.919ZM423.237 223.207L386.663 225.53L387.56 203.772L396.791 203.188L397.01 197.961L404.589 197.479L404.371 202.706L407.054 202.531L407.272 197.304L414.921 196.823L414.703 202.05L424.145 201.45L423.237 223.207ZM396.115 244.402L411.824 243.408L411.945 240.409L396.236 241.404L396.115 244.402ZM394.82 219.247L397.573 219.073L397.674 216.635L394.921 216.808L394.82 219.247ZM395.142 211.431L397.895 211.258L397.996 208.819L395.243 208.993L395.142 211.431ZM399.11 250.054C399.791 251.816 400.466 253.867 400.95 255.436L406.396 255.088C407.157 253.3 408.002 251.234 408.622 249.454L399.11 250.054ZM403.802 216.238L403.701 218.677L406.384 218.502L406.485 216.064L403.802 216.238ZM406.716 210.697L406.817 208.258L404.134 208.433L404.033 210.871L406.716 210.697ZM415.306 215.512L412.623 215.687L412.521 218.126L415.205 217.951L415.306 215.512ZM415.628 207.697L412.945 207.871L412.843 210.31L415.527 210.135L415.628 207.697Z" fill="white"/>
</mask>
<g mask="url(#mask0_146_2295)">
<path d="M421.516 274.766C432.853 274.957 442.198 265.922 442.39 254.585C442.581 243.248 433.546 233.903 422.21 233.711C410.873 233.52 401.527 242.555 401.336 253.892C401.144 265.229 410.179 274.574 421.516 274.766Z" fill="#2075F3"/>
</g>
<mask id="mask1_146_2295" style="mask-type:luminance" maskUnits="userSpaceOnUse" x="221" y="205" width="68" height="71">
<path d="M243.131 242.169C242.291 247.505 241.06 252.315 239.518 256.52C243.098 263.111 250.222 263.491 260.624 262.897C268.063 262.422 280.136 261.166 288.44 259.806C286.984 261.912 285.486 266.527 284.889 269.278C277.292 270.249 268.398 271.019 260.057 271.549C248.143 272.307 240.546 271.469 235.663 265.106C233.292 269.286 230.476 272.599 227.353 275.097C226.124 273.226 223.028 270.013 221.158 268.811C226.9 264.618 230.884 257.904 233.243 249.063L229.389 249.307C227.807 249.411 225.646 250.034 225.005 250.704C224.608 248.717 223.057 244.64 222.305 242.947C223.491 242.597 224.682 241.957 226.118 240.411C227.197 239.299 229.662 236.08 231.999 232.739L224.28 233.229L224.604 225.283L238.521 224.398L239.368 223.992L245.18 226.261C242.544 230.187 238.297 236.436 234.665 241.255L237.629 241.065L239.154 240.761L243.131 242.169ZM234.254 224.166C232.653 221.279 229.07 216.637 226.246 213.339L233.941 208.329C236.98 211.4 240.451 215.499 242.255 218.23L234.254 224.166ZM278.716 260.562C275.831 257.273 270.392 252.4 265.356 247.985C262.191 252.982 257.317 257.95 249.722 262.333C248.435 260.331 245.396 257.319 243.122 255.73C251.462 251.651 255.783 246.933 258.098 242.471L244.872 243.308L245.258 234.103L260.546 233.131L260.801 226.925L247.235 227.786L247.609 218.651L254.497 218.217C253.289 215.716 251.63 212.698 250.36 210.346L258.965 206.531C260.835 209.543 263.474 213.758 264.74 216.39L261.866 217.751L268.614 217.325C270.487 213.656 272.312 209.227 273.491 205.746L283.423 208.034C281.793 210.987 280.082 214.019 278.467 216.692L285.145 216.264L284.77 225.399L270.713 226.292L270.458 232.499L286.238 231.495L285.862 240.7L272.426 241.553C277.349 245.557 282.866 249.931 285.964 253.003L278.716 260.562Z" fill="white"/>
</mask>
<g mask="url(#mask1_146_2295)">
<path d="M273.868 237.857C285.205 238.048 294.551 229.013 294.742 217.677C294.934 206.34 285.899 196.994 274.562 196.803C263.225 196.611 253.88 205.646 253.688 216.983C253.497 228.32 262.532 237.665 273.868 237.857Z" fill="#2075F3"/>
</g>
<mask id="mask2_146_2295" style="mask-type:luminance" maskUnits="userSpaceOnUse" x="221" y="205" width="68" height="71">
<path d="M243.131 242.169C242.291 247.505 241.06 252.315 239.518 256.52C243.098 263.111 250.222 263.491 260.624 262.897C268.063 262.422 280.136 261.166 288.44 259.806C286.984 261.912 285.486 266.527 284.889 269.278C277.292 270.249 268.398 271.019 260.057 271.549C248.143 272.307 240.546 271.469 235.663 265.106C233.292 269.286 230.476 272.599 227.353 275.097C226.124 273.226 223.028 270.013 221.158 268.811C226.9 264.618 230.884 257.904 233.243 249.063L229.389 249.307C227.807 249.411 225.646 250.034 225.005 250.704C224.608 248.717 223.057 244.64 222.305 242.947C223.491 242.597 224.682 241.957 226.118 240.411C227.197 239.299 229.662 236.08 231.999 232.739L224.28 233.229L224.604 225.283L238.521 224.398L239.368 223.992L245.18 226.261C242.544 230.187 238.297 236.436 234.665 241.255L237.629 241.065L239.154 240.761L243.131 242.169ZM234.254 224.166C232.653 221.279 229.07 216.637 226.246 213.339L233.941 208.329C236.98 211.4 240.451 215.499 242.255 218.23L234.254 224.166ZM278.716 260.562C275.831 257.273 270.392 252.4 265.356 247.985C262.191 252.982 257.317 257.95 249.722 262.333C248.435 260.331 245.396 257.319 243.122 255.73C251.462 251.651 255.783 246.933 258.098 242.471L244.872 243.308L245.258 234.103L260.546 233.131L260.801 226.925L247.235 227.786L247.609 218.651L254.497 218.217C253.289 215.716 251.63 212.698 250.36 210.346L258.965 206.531C260.835 209.543 263.474 213.758 264.74 216.39L261.866 217.751L268.614 217.325C270.487 213.656 272.312 209.227 273.491 205.746L283.423 208.034C281.793 210.987 280.082 214.019 278.467 216.692L285.145 216.264L284.77 225.399L270.713 226.292L270.458 232.499L286.238 231.495L285.862 240.7L272.426 241.553C277.349 245.557 282.866 249.931 285.964 253.003L278.716 260.562Z" fill="white"/>
</mask>
<g mask="url(#mask2_146_2295)">
<path d="M274.66 259.663C285.644 259.849 294.698 251.096 294.883 240.112C295.069 229.129 286.316 220.075 275.332 219.889C264.349 219.704 255.295 228.457 255.109 239.44C254.924 250.424 263.677 259.478 274.66 259.663Z" fill="#55A2FF"/>
</g>
<path d="M272.118 168.618C275.832 170.181 279.88 172.069 282.214 173.649L275.449 180.996C272.447 178.695 265.992 175.435 261.264 173.455L265.5 169.036L255.237 169.693L259.841 173.071C254.822 176.507 247.234 180.439 241.505 182.743C240.136 180.889 237.572 178.146 235.581 176.412C239.697 174.901 244.609 172.454 248.479 170.129L239.037 170.729L239.156 167.821C232.364 170.877 225.019 174.043 219.006 176.572L215.842 166.677C218.004 165.984 220.579 165.127 223.435 164.185L224.285 143.516L217.947 143.919L218.337 134.415L224.675 134.012L225.284 119.31L234.715 118.709L234.107 133.411L240.725 132.993L240.334 142.497L233.716 142.916L232.985 160.736L238.843 158.564L239.368 162.404L239.37 162.264L244.326 161.947L245.544 132.474L255.466 131.841C255.642 130.934 255.817 130.017 255.994 129.04L242.627 129.884L242.951 121.979L257.208 121.069C257.416 119.462 257.613 117.866 257.747 116.398L268.347 115.937C268.012 117.411 267.676 118.956 267.341 120.43L282.359 119.474L282.035 127.379L265.155 128.454L264.347 131.271L278.605 130.362L277.387 159.835L282.213 159.527L281.86 167.992L272.118 168.618ZM252.977 161.393L268.406 160.414L268.49 158.405L253.061 159.385L252.977 161.393ZM253.351 152.238L253.268 154.247L268.696 153.268L268.78 151.259L253.351 152.238ZM269.08 144.183L253.651 145.163L253.568 147.101L268.997 146.122L269.08 144.183ZM253.929 138.156L253.844 140.235L269.273 139.256L269.358 137.177L253.929 138.156Z" fill="#3C4246"/>
<path d="M299.367 142.814L297.86 179.364L287.938 179.996L290.559 116.602L317.972 114.864L316.858 141.709L299.367 142.814ZM307.805 134.735L307.908 132.167L299.778 132.68L299.675 135.248L307.805 134.735ZM300.163 123.535L300.061 126.033L308.19 125.521L308.293 123.022L300.163 123.535ZM347.727 164.574C347.506 169.911 346.358 172.752 343.116 174.617C339.814 176.492 335.325 176.976 328.777 177.396C328.543 174.711 327.286 170.37 326.01 167.748L313.124 168.57L312.97 172.388L303.738 172.972L304.837 146.407L332.181 144.669L331.25 167.206L335.725 166.922C337.037 166.834 337.536 166.322 337.587 165.073L338.604 140.386L320.622 141.533L321.736 114.628L349.861 112.833L347.727 164.574ZM322.491 153.446L313.74 153.998L313.473 160.375L322.223 159.823L322.491 153.446ZM338.93 132.901L339.046 130.192L330.576 130.729L330.46 133.438L338.93 132.901ZM330.952 121.504L330.848 124.073L339.318 123.536L339.422 120.967L330.952 121.504Z" fill="#3C4246"/>
<path d="M406.703 137.446C410.708 140.164 415.715 142.129 421.238 143.232C419.022 145.305 415.974 149.304 414.49 151.89C410.07 150.715 406.101 148.827 402.62 146.488C401.782 153.455 400.811 157.049 399.161 158.812C397.583 160.505 395.561 161.181 393.485 161.526C391.549 161.854 388.374 162.13 384.942 162.212C384.9 159.931 384.063 156.806 382.976 154.868C385.375 154.918 387.647 154.847 388.818 154.776C389.779 154.713 390.342 154.542 390.911 154.022C391.339 153.579 391.653 152.734 391.987 151.329L377.589 152.246L377.216 161.331C377.096 164.25 377.972 164.535 383.418 164.187L398.366 163.239C402.842 162.954 403.58 161.867 404.475 155.101C406.613 156.417 410.763 157.607 413.427 157.992C411.619 168.553 408.609 171.443 398.627 172.075L382.367 173.11C370.453 173.869 367.042 171.521 367.431 162.096L367.873 151.342C365.477 152.882 362.942 154.349 360.138 155.712C359.211 153.146 356.556 149.301 354.424 147.635C359.462 145.379 363.756 142.821 367.385 139.962L356.712 140.642L357.071 131.837L376.565 130.596C377.518 129.222 378.461 127.848 379.276 126.411L361.434 127.54L361.789 118.945L370.26 118.408C369.365 116.873 368.193 115.222 367.145 113.905L375.035 109.257C377.009 111.411 379.358 114.451 380.36 116.668L378.319 117.904L383.215 117.597C384.31 114.345 385.066 111.047 385.614 107.626L396.039 108.002C395.438 111.012 394.687 114.04 393.748 116.934L398.704 116.618C400.4 113.886 402.187 110.516 403.181 107.962L412.365 110.148C411.111 112.167 409.796 114.185 408.556 115.994L415.444 115.56L415.089 124.156L390.359 125.728C389.755 127.148 389.012 128.516 388.268 129.874L419.126 127.914L418.767 136.72L406.703 137.446ZM397.698 142.445C396.309 141.151 395.132 139.771 393.958 138.251L381.903 139.017C380.596 140.626 379.088 142.24 377.513 143.724L397.698 142.445Z" fill="#3C4246"/>
<mask id="mask3_146_2295" style="mask-type:luminance" maskUnits="userSpaceOnUse" x="287" y="112" width="63" height="68">
<path d="M299.367 142.814L297.86 179.364L287.938 179.996L290.559 116.602L317.972 114.864L316.858 141.709L299.367 142.814ZM307.805 134.735L307.908 132.167L299.778 132.68L299.675 135.248L307.805 134.735ZM300.163 123.535L300.061 126.033L308.19 125.521L308.293 123.022L300.163 123.535ZM347.727 164.574C347.506 169.911 346.358 172.752 343.116 174.617C339.814 176.492 335.325 176.976 328.777 177.396C328.543 174.711 327.286 170.37 326.01 167.748L313.124 168.57L312.97 172.388L303.738 172.972L304.837 146.407L332.181 144.669L331.25 167.206L335.725 166.922C337.037 166.834 337.536 166.322 337.587 165.073L338.604 140.386L320.622 141.533L321.736 114.628L349.861 112.833L347.727 164.574ZM322.491 153.446L313.74 153.998L313.473 160.375L322.223 159.823L322.491 153.446ZM338.93 132.901L339.046 130.192L330.576 130.729L330.46 133.438L338.93 132.901ZM330.952 121.504L330.848 124.073L339.318 123.536L339.422 120.967L330.952 121.504Z" fill="white"/>
</mask>
<g mask="url(#mask3_146_2295)">
<path d="M302.789 187.148C314.126 187.34 323.471 178.305 323.663 166.968C323.854 155.631 314.819 146.286 303.482 146.094C292.146 145.903 282.8 154.938 282.609 166.275C282.417 177.611 291.452 186.957 302.789 187.148Z" fill="#2075F3"/>
</g>
<mask id="mask4_146_2295" style="mask-type:luminance" maskUnits="userSpaceOnUse" x="287" y="112" width="63" height="68">
<path d="M299.367 142.814L297.86 179.364L287.938 179.996L290.559 116.602L317.972 114.864L316.858 141.709L299.367 142.814ZM307.805 134.735L307.908 132.167L299.778 132.68L299.675 135.248L307.805 134.735ZM300.163 123.535L300.061 126.033L308.19 125.521L308.293 123.022L300.163 123.535ZM347.727 164.574C347.506 169.911 346.358 172.752 343.116 174.617C339.814 176.492 335.325 176.976 328.777 177.396C328.543 174.711 327.286 170.37 326.01 167.748L313.124 168.57L312.97 172.388L303.738 172.972L304.837 146.407L332.181 144.669L331.25 167.206L335.725 166.922C337.037 166.834 337.536 166.322 337.587 165.073L338.604 140.386L320.622 141.533L321.736 114.628L349.861 112.833L347.727 164.574ZM322.491 153.446L313.74 153.998L313.473 160.375L322.223 159.823L322.491 153.446ZM338.93 132.901L339.046 130.192L330.576 130.729L330.46 133.438L338.93 132.901ZM330.952 121.504L330.848 124.073L339.318 123.536L339.422 120.967L330.952 121.504Z" fill="white"/>
</mask>
<g mask="url(#mask4_146_2295)">
<path d="M348.737 130.236C359.72 130.422 368.774 121.668 368.96 110.685C369.145 99.7016 360.392 90.6474 349.408 90.4619C338.425 90.2764 329.371 99.0298 329.185 110.013C329 120.997 337.753 130.051 348.737 130.236Z" fill="#55A2FF"/>
</g>
<path d="M86.9545 307.57C77.9235 308.148 73.9968 303.771 73.6805 298.815C73.4991 295.931 74.467 293.697 75.7942 292.099L78.1243 293.889C77.1442 295.073 76.5062 296.722 76.6182 298.384C76.8392 301.879 79.5012 304.744 86.7499 304.286C92.3967 303.932 94.9661 301.625 94.7527 298.271C94.5939 295.828 92.6951 293.965 89.7916 294.146C86.8681 294.327 85.4395 296.013 85.6115 298.856C85.7227 300.558 86.68 302.505 88.992 304.184L86.3764 304.49C84.4049 302.786 83.0829 300.524 82.95 298.331C82.6898 294.196 84.832 291.122 89.5777 290.822C94.0632 290.538 97.2461 293.942 97.5165 298.067C97.8144 302.933 94.4936 307.097 86.9545 307.57Z" fill="white"/>
<path d="M69.9657 274.789L69.7678 271.705L101.789 281.397L101.987 284.481L69.9657 274.789Z" fill="white"/>
<path d="M74.2936 253.038L75.0908 265.644L72.0171 265.842L70.9667 249.272L73.1695 249.129C80.3376 254.631 85.3713 255.636 94.366 255.438L94.5943 259.092C86.1807 259.23 80.9161 257.681 74.2936 253.038Z" fill="white"/>
<path d="M80.1035 199.799C71.0725 200.377 67.1459 196 66.8295 191.044C66.6482 188.16 67.6161 185.926 68.9432 184.329L71.2733 186.118C70.2932 187.302 69.6653 188.951 69.7672 190.613C69.9882 194.108 72.6502 196.973 79.899 196.515C85.5458 196.161 88.1151 193.854 87.9017 190.5C87.7429 188.057 85.8441 186.194 82.9407 186.375C80.0172 186.556 78.5885 188.242 78.7605 191.085C78.8718 192.787 79.839 194.734 82.151 196.413L79.5355 196.719C77.564 195.016 76.242 192.753 76.109 190.56C75.8488 186.425 77.991 183.351 82.7368 183.051C87.2222 182.767 90.4052 186.171 90.6755 190.296C90.9734 195.162 87.6428 199.316 80.1035 199.799Z" fill="white"/>
<path d="M63.1148 167.018L62.9168 163.934L94.9377 173.626L95.1356 176.71L63.1148 167.018Z" fill="white"/>
<path d="M85.3116 157.321L82.8981 155.73C84.2152 154.142 85.2713 152.01 85.0968 149.316C84.9063 146.383 83.3211 144.306 80.9783 144.456C78.4353 144.613 76.888 146.808 77.2506 152.574L74.6075 152.74C74.284 147.614 72.445 145.762 70.1923 145.904C68.1499 146.03 66.9889 147.85 67.1559 150.404C67.2814 152.446 68.3117 154.214 69.7178 155.638L67.614 157.622C65.7952 155.761 64.4456 153.358 64.2547 150.445C63.9698 145.999 65.9178 142.582 69.7023 142.346C72.3655 142.18 74.2253 143.982 75.3694 146.712L75.5095 146.704C75.9906 143.682 77.8051 141.062 80.9189 140.865C85.0239 140.604 87.7324 144.27 88.025 148.856C88.2789 152.771 86.9623 155.519 85.3116 157.321Z" fill="white"/>
<path d="M75.1996 136.037C67.4803 136.527 63.189 133.604 62.8652 128.498C62.5412 123.402 66.4301 119.947 74.1495 119.457C81.8089 118.967 86.3203 121.883 86.6442 126.979C86.9579 132.095 82.8489 135.556 75.1996 136.037ZM74.3547 122.701C67.9469 123.113 65.528 125.392 65.7087 128.316C65.8993 131.24 68.5765 133.205 74.9944 132.793C81.4023 132.382 83.9813 130.095 83.7908 127.161C83.6099 124.248 80.7624 122.299 74.3547 122.701ZM74.6099 130.097C73.0881 130.191 72.0749 129.184 71.9961 127.932C71.9174 126.671 72.7965 125.545 74.3183 125.451C75.8701 125.357 76.8834 126.354 76.9621 127.616C77.041 128.867 76.1619 129.993 74.6099 130.097Z" fill="white"/>
<path d="M81.648 218.498L76.5437 228.773L87.9976 228.046L81.648 218.498Z" fill="white"/>
<path d="M459.293 282.415C459.202 282.453 459.101 282.492 459.011 282.53C460.773 282.41 462.422 281.878 463.986 281.084C463.936 281.093 463.885 281.102 463.835 281.101C463.795 281.101 463.755 281.11 463.645 281.108C464.14 280.856 464.573 280.634 465.007 280.411C465.008 280.391 464.998 280.381 464.998 280.361C464.938 280.36 464.868 280.349 464.808 280.348C464.799 280.327 464.799 280.317 464.789 280.297C465.122 280.113 465.465 279.929 465.799 279.744C465.789 279.724 465.789 279.714 465.779 279.694C465.699 279.703 465.619 279.701 465.469 279.719C465.863 279.485 466.206 279.281 466.57 279.067C466.48 279.046 466.441 279.035 466.361 279.014C466.473 278.925 466.554 278.857 466.645 278.798C466.827 278.681 467.038 278.615 467.112 278.346C467.145 278.217 467.336 278.14 467.448 278.032C467.56 277.914 467.662 277.775 467.764 277.637C467.887 277.489 468 277.331 468.122 277.173C468.266 276.985 468.409 276.798 468.542 276.6C469.156 275.76 469.78 274.931 470.385 274.081C470.672 273.666 470.86 273.179 471.167 272.784C471.371 272.517 471.306 272.246 471.361 271.977C471.48 271.439 471.398 270.918 471.417 270.388C471.437 269.838 471.526 269.289 471.565 268.75C471.605 268.181 471.614 267.601 471.644 267.031C471.646 266.941 471.687 266.842 471.709 266.752C471.73 266.673 471.782 266.593 471.793 266.504C471.86 266.085 471.897 265.665 471.984 265.257C472.125 264.599 472.246 263.941 472.587 263.336C472.814 262.93 473.04 262.524 473.277 262.128C473.329 262.039 473.43 261.951 473.531 261.912C473.984 261.75 474.427 261.577 474.899 261.455C475.301 261.352 475.795 261.67 475.948 262.103C476.1 262.546 476.314 262.959 476.285 263.439C476.271 263.689 476.237 263.938 476.203 264.188C476.202 264.238 476.171 264.287 476.17 264.347C476.16 264.917 475.981 265.454 475.802 265.991C475.613 266.538 475.443 267.105 475.244 267.652C475.129 267.97 474.974 268.268 474.848 268.585C474.754 268.824 474.67 269.062 474.576 269.291C474.368 269.807 474.169 270.334 473.95 270.841C473.752 271.307 473.515 271.753 473.297 272.21C473.152 272.507 473.127 272.817 473.221 273.129C473.24 273.189 473.339 273.241 473.409 273.252C473.609 273.275 473.809 273.289 474.049 273.303C473.947 273.371 473.887 273.41 473.826 273.449C473.836 273.469 473.835 273.489 473.845 273.499C474.406 273.439 474.967 273.378 475.599 273.299C475.488 273.367 475.437 273.406 475.295 273.494C475.376 273.485 475.406 273.486 475.426 273.486C475.756 273.441 476.088 273.367 476.418 273.343C476.769 273.319 477.118 273.334 477.469 273.33C477.539 273.332 477.609 273.323 477.679 273.304C478.422 273.136 479.175 272.989 479.918 272.812C480.671 272.624 481.424 272.447 482.158 272.209C483.295 271.839 484.412 271.417 485.539 271.016C485.609 270.988 485.68 270.949 485.771 270.89C485.711 270.869 485.672 270.849 485.592 270.817C486.106 270.566 486.59 270.334 487.084 270.102C487.075 270.082 487.075 270.072 487.065 270.052C486.975 270.06 486.875 270.059 486.755 270.067C487.119 269.853 487.462 269.659 487.866 269.425C487.746 269.403 487.697 269.393 487.607 269.381C487.809 269.224 488.021 269.118 488.164 268.95C488.348 268.743 488.502 268.496 488.646 268.248C488.821 267.951 489.045 267.725 489.415 267.691C489.696 267.666 489.798 267.558 489.722 267.296C489.637 266.995 489.553 266.673 489.377 266.42C488.87 265.672 488.644 264.808 488.368 263.973C488.149 263.299 487.931 262.626 487.702 261.952C487.683 261.901 487.594 261.82 487.544 261.839C486.851 261.997 486.168 262.176 485.475 262.344C485.415 262.353 485.344 262.392 485.324 262.441C485.24 262.68 485.029 262.717 484.828 262.783C484.416 262.906 484.033 263.07 483.649 263.283C483.275 263.497 482.824 263.569 482.402 263.692C481.437 263.976 480.462 264.26 479.487 264.533C479.397 264.562 479.288 264.52 479.198 264.478C479.05 264.406 478.911 264.313 478.772 264.231C478.624 264.149 478.561 263.737 478.684 263.559C478.93 263.204 479.214 262.948 479.657 262.806C481.315 262.294 482.975 261.752 484.615 261.179C485.46 260.884 486.287 260.497 487.113 260.131C487.506 259.958 487.518 259.828 487.455 259.417C487.365 258.845 487.334 258.275 487.264 257.694C487.23 257.343 487.176 257.002 487.142 256.651C487.115 256.421 487.12 256.181 487.104 255.941C487.089 255.63 487.064 255.32 487.069 255.01C487.064 254.71 487.09 254.4 487.105 254.1C487.106 254.04 487.127 253.981 487.128 253.921C487.119 253.25 487.081 252.57 487.122 251.9C487.151 251.381 487.279 250.873 487.388 250.355C487.454 250.026 487.539 249.707 487.634 249.389C487.741 249.01 487.916 248.673 488.142 248.337C488.316 248.09 488.499 247.953 488.761 247.847C489.456 247.549 490.002 247.798 490.554 248.228C490.88 248.483 490.994 248.815 491.099 249.167C491.268 249.77 491.468 250.364 491.598 250.966C491.691 251.417 491.813 251.89 491.665 252.367C491.633 252.477 491.681 252.607 491.679 252.727C491.701 253.148 491.715 253.558 491.727 253.978C491.734 254.159 491.731 254.349 491.738 254.529C491.763 254.839 491.817 255.16 491.662 255.458C491.631 255.527 491.66 255.627 491.658 255.717C491.651 256.127 491.624 256.537 491.657 256.938C491.69 257.348 491.784 257.76 491.867 258.171C491.876 258.212 491.975 258.253 492.025 258.244C492.126 258.236 492.226 258.197 492.327 258.169C495.091 257.376 497.854 256.582 500.608 255.789C500.789 255.732 500.98 255.695 501.17 255.658C501.301 255.63 501.472 255.573 501.541 255.634C501.699 255.767 501.856 255.95 501.932 256.141C502.095 256.564 501.96 256.882 501.547 257.035C500.973 257.255 500.39 257.455 499.807 257.645C497.936 258.234 496.066 258.812 494.197 259.381C493.835 259.495 493.463 259.569 493.102 259.662C493.031 259.681 492.921 259.709 492.9 259.769C492.805 260.047 492.575 260.044 492.344 260.09C491.843 260.191 491.375 260.653 491.484 261.255C491.53 261.526 491.455 261.825 491.43 262.115C491.429 262.185 491.398 262.254 491.396 262.324C491.358 262.843 491.339 263.373 491.29 263.892C491.23 264.502 491.12 265.1 491.089 265.699C491.072 266.139 491.034 266.599 491.277 267.033C491.471 267.376 491.574 267.778 491.718 268.15C491.775 268.311 491.782 268.501 492.022 268.525C492.072 268.526 492.12 268.617 492.159 268.678C492.247 268.829 492.314 269 492.411 269.142C492.538 269.334 492.685 269.517 492.842 269.679C493.049 269.903 493.306 270.087 493.492 270.321C493.863 270.807 494.41 271.046 494.915 271.315C495.47 271.604 496.089 271.665 496.721 271.565C496.628 271.764 496.758 271.736 496.869 271.718C497.13 271.662 497.39 271.627 497.641 271.551C498.406 271.304 499.17 271.037 499.935 270.769C499.965 270.76 499.996 270.73 500.057 270.681C499.947 270.68 499.876 270.688 499.736 270.686C500.231 270.434 500.664 270.222 501.098 269.999C501.089 269.979 501.089 269.969 501.079 269.949C501.029 269.938 500.989 269.937 500.88 269.915C501.253 269.702 501.577 269.497 501.961 269.273C501.851 269.262 501.791 269.261 501.671 269.249C502.045 269.025 502.368 268.84 502.712 268.626C502.642 268.585 502.603 268.564 502.543 268.533C502.746 268.387 502.938 268.26 503.11 268.113C503.181 268.054 503.184 267.894 503.255 267.845C503.609 267.621 503.815 267.244 504.09 266.949C504.396 266.614 504.652 266.228 504.919 265.853C505.298 265.319 505.687 264.796 506.046 264.242C506.447 263.628 506.817 262.995 507.198 262.371C507.424 262.015 507.775 261.941 508.155 261.957C508.445 261.962 508.551 262.224 508.608 262.405C508.674 262.596 508.64 262.855 508.557 263.044C508.38 263.441 508.134 263.807 507.917 264.183C507.742 264.48 507.577 264.788 507.382 265.074C507.188 265.351 506.983 265.628 506.768 265.884C506.105 266.693 505.431 267.502 504.747 268.3C504.39 268.714 503.964 269.067 503.637 269.502C503.432 269.768 503.16 269.924 502.906 270.129C502.531 270.443 502.175 270.787 501.8 271.101C501.678 271.199 501.537 271.267 501.405 271.354C501.213 271.491 500.982 271.547 500.838 271.785C500.725 271.963 500.394 271.997 500.163 272.093C500.072 272.132 499.941 272.17 499.89 272.249C499.715 272.526 499.415 272.561 499.153 272.656C498.378 272.943 497.557 273 496.755 273.106C496.685 273.115 496.615 273.104 496.545 273.102C496.206 273.077 495.866 273.071 495.537 273.005C495.257 272.951 494.979 272.866 494.721 272.742C494.275 272.524 493.818 272.306 493.403 272.029C492.997 271.762 492.592 271.466 492.258 271.11C491.904 270.754 491.642 270.309 491.338 269.914C491.211 269.752 491.074 269.59 490.957 269.418C490.791 269.175 490.645 268.912 490.489 268.66C490.441 268.579 490.372 268.518 490.313 268.447C490.252 268.506 490.191 268.565 490.14 268.624C489.895 268.92 489.66 269.226 489.395 269.501C489.039 269.875 488.652 270.239 488.276 270.593C488.205 270.661 488.115 270.7 488.034 270.748C487.771 270.914 487.469 271.039 487.333 271.357C487.313 271.396 487.252 271.415 487.202 271.434C486.92 271.56 486.638 271.675 486.375 271.821C486.284 271.869 486.242 272.008 486.161 272.077C486.049 272.165 485.918 272.243 485.787 272.281C485.476 272.385 485.165 272.45 484.853 272.555C484.782 272.574 484.741 272.673 484.68 272.732C484.619 272.791 484.568 272.86 484.497 272.889C484.265 272.985 484.015 273.021 483.803 273.137C482.621 273.827 481.278 274.015 480.001 274.383C479.438 274.544 478.819 274.503 478.228 274.563C478.068 274.581 477.888 274.578 477.737 274.635C477.374 274.769 477.004 274.773 476.624 274.766C476.244 274.75 475.853 274.813 475.473 274.817C475.163 274.822 474.863 274.807 474.553 274.801C474.103 274.804 473.663 274.796 473.268 275.1C473.157 275.188 473.156 275.238 473.174 275.348C473.274 275.96 473.544 276.505 473.876 277.01C474.237 277.566 474.416 278.19 474.606 278.813C474.814 279.506 475.012 280.21 475.22 280.913C475.229 280.954 475.239 281.004 475.268 281.034C476.191 282.66 476.52 284.486 477.06 286.245C477.193 286.658 477.266 287.089 477.359 287.521C477.406 287.721 477.452 287.922 477.439 288.122C477.391 288.551 477.495 288.943 477.618 289.335C477.76 289.808 477.862 290.279 477.684 290.777C477.642 290.906 477.719 291.077 477.687 291.217C477.546 291.864 477.514 292.564 476.876 293.003C476.714 293.11 476.621 293.319 476.459 293.416C476.207 293.562 475.926 293.597 475.628 293.472C475.221 293.295 474.845 293.089 474.631 292.675C474.457 292.342 474.202 292.048 474.058 291.705C473.818 291.121 473.638 290.518 473.438 289.925C473.048 288.738 472.698 287.542 472.599 286.29C472.55 285.659 472.51 285.038 472.28 284.434C472.204 284.233 472.178 284.003 472.181 283.783C472.204 283.023 472.057 282.28 471.929 281.538C471.875 281.197 471.931 280.838 471.917 280.498C471.91 280.278 471.854 280.067 471.838 279.856C471.796 279.355 471.755 278.845 471.713 278.344C471.696 278.144 471.66 277.943 471.653 277.743C471.639 277.392 471.645 277.043 471.621 276.692C471.606 276.392 471.581 276.101 471.536 275.801C471.518 275.71 471.43 275.589 471.36 275.578C471.27 275.566 471.139 275.634 471.077 275.713C470.729 276.187 470.411 276.672 470.053 277.136C469.828 277.432 469.564 277.687 469.339 277.974C468.93 278.487 468.354 278.867 468.053 279.472C468.043 279.492 468.033 279.502 468.023 279.512C467.698 279.796 467.363 280.081 467.038 280.365C466.957 280.444 466.866 280.512 466.784 280.591C466.683 280.689 466.581 280.798 466.469 280.886C466.186 281.111 465.921 281.377 465.608 281.551C465.023 281.861 464.603 282.424 463.93 282.603C463.799 282.641 463.706 282.829 463.575 282.917C463.018 283.298 462.376 283.447 461.742 283.626C461.632 283.654 461.521 283.683 461.411 283.721C460.998 283.864 460.587 283.947 460.147 283.909C459.468 283.848 458.767 283.906 458.11 283.755C457.342 283.592 456.576 283.379 455.914 282.888C455.499 282.581 455.337 282.128 455.023 281.773C454.434 281.102 454.348 280.251 454.292 279.42C454.245 278.669 454.338 277.9 454.421 277.152C454.492 276.513 454.986 276.271 455.551 276.571C455.957 276.788 455.986 276.858 455.908 277.317C455.886 277.456 455.883 277.596 455.881 277.736C455.856 278.016 455.832 278.286 455.807 278.565C455.806 278.625 455.785 278.685 455.794 278.745C455.861 279.546 456.037 280.319 456.335 281.065C456.575 281.659 457.091 281.917 457.647 282.117C458.154 282.295 458.662 282.424 459.195 282.273C459.235 282.264 459.275 282.284 459.315 282.295C459.283 282.385 459.283 282.405 459.293 282.415ZM490.117 250.451C490.097 250.45 490.067 250.45 490.047 250.45C489.999 250.299 489.972 250.138 489.914 249.997C489.828 249.776 489.619 249.742 489.428 249.759C489.308 249.777 489.166 249.905 489.114 250.014C488.989 250.332 488.813 250.649 488.857 251.02C488.866 251.1 488.804 251.179 488.783 251.268C488.75 251.408 488.718 251.557 488.715 251.697C488.703 251.867 488.76 252.048 488.707 252.197C488.561 252.575 488.625 252.936 488.658 253.316C488.667 253.407 488.665 253.497 488.664 253.577C488.648 253.916 488.632 254.256 488.617 254.586C488.602 254.876 488.587 255.166 488.582 255.445C488.58 255.595 488.587 255.746 488.605 255.886C488.686 256.427 488.826 256.97 488.717 257.528C488.684 257.678 488.732 257.848 488.779 257.989C488.902 258.431 489.035 258.864 489.177 259.296C489.196 259.346 489.225 259.417 489.265 259.438C489.404 259.5 489.907 259.338 489.949 259.199C490.034 258.901 490.109 258.592 490.144 258.282C490.179 257.993 490.164 257.693 490.18 257.393C490.182 257.253 490.204 257.113 490.207 256.973C490.207 256.333 490.208 255.693 490.199 255.053C490.2 254.983 490.221 254.913 490.223 254.843C490.228 254.523 490.223 254.203 490.229 253.883C490.234 253.603 490.268 253.334 490.283 253.054C490.295 252.934 490.317 252.814 490.309 252.704C490.256 252.263 490.174 251.822 490.131 251.381C490.106 251.091 490.121 250.771 490.117 250.451ZM473.868 281.001C473.878 281.001 473.899 280.991 473.909 280.991C473.841 280.84 473.794 280.679 473.716 280.528C473.678 280.457 473.599 280.406 473.54 280.345C473.479 280.404 473.408 280.453 473.367 280.522C473.15 280.929 473.182 281.359 473.265 281.781C473.441 282.624 473.657 283.447 473.672 284.318C473.675 284.738 473.778 285.17 473.871 285.581C474.002 286.124 474.193 286.657 474.334 287.199C474.634 288.395 474.893 289.609 475.203 290.805C475.297 291.156 475.502 291.47 475.677 291.793C475.715 291.863 475.834 291.915 475.915 291.907C475.965 291.908 476.037 291.779 476.038 291.699C476.056 291.219 476.094 290.74 476.042 290.269C475.99 289.788 475.808 289.315 475.737 288.823C475.629 288.091 475.381 287.377 475.474 286.609C475.486 286.499 475.438 286.388 475.41 286.277C475.353 286.096 475.286 285.915 475.229 285.724C474.785 284.177 474.332 282.589 473.868 281.001ZM472.83 268.481C472.869 268.532 472.927 268.643 472.977 268.644C473.067 268.645 473.198 268.598 473.249 268.528C473.331 268.41 473.374 268.26 473.426 268.121C473.708 267.386 474.041 266.672 474.263 265.915C474.475 265.219 474.568 264.48 474.72 263.773C474.741 263.693 474.782 263.604 474.804 263.524C474.825 263.444 474.867 263.345 474.848 263.275C474.82 263.174 474.751 263.083 474.703 262.992C474.622 263.051 474.521 263.089 474.46 263.158C473.897 263.929 473.761 264.867 473.466 265.742C473.329 266.159 473.212 266.578 473.105 267.006C472.998 267.394 472.912 267.783 472.825 268.171C472.804 268.251 472.822 268.351 472.83 268.481ZM489.521 262.642C489.511 262.652 489.49 262.662 489.48 262.682C489.569 262.773 489.657 262.895 489.766 262.947C489.825 262.968 489.977 262.89 490.028 262.821C490.079 262.732 490.062 262.602 490.073 262.492C490.098 262.212 490.133 261.943 490.147 261.663C490.15 261.513 490.143 261.353 490.115 261.192C490.06 260.931 489.86 260.898 489.63 260.904C489.4 260.91 489.347 261.059 489.315 261.219C489.292 261.358 489.28 261.498 489.308 261.639C489.362 261.97 489.447 262.301 489.521 262.642Z" fill="#85BCFF"/>
<path d="M435.473 257.289C435.424 257.268 435.394 257.248 435.344 257.227C435.598 257.041 435.84 256.875 436.124 256.68C436.024 256.678 435.964 256.667 435.824 256.665C436.178 256.441 436.471 256.256 436.764 256.081C436.744 256.07 436.735 256.05 436.715 256.04C436.746 255.98 436.767 255.891 436.818 255.861C437.05 255.705 437.293 255.559 437.546 255.404C437.506 255.373 437.487 255.343 437.427 255.302C437.811 255.088 438.184 254.884 438.568 254.671C438.558 254.661 438.559 254.641 438.549 254.631C438.489 254.64 438.419 254.638 438.358 254.647C438.349 254.627 438.339 254.607 438.33 254.587C438.813 254.355 439.307 254.123 439.832 253.872C439.712 253.85 439.632 253.839 439.503 253.807C439.825 253.672 440.087 253.536 440.359 253.451C441.244 253.166 442.139 252.891 443.033 252.636C443.284 252.56 443.555 252.555 443.815 252.539C443.895 252.531 444.077 252.434 444.053 252.663C444.113 252.674 444.172 252.685 444.233 252.676C444.413 252.659 444.604 252.613 444.784 252.616C444.904 252.618 445.022 252.69 445.142 252.732C445.191 252.752 445.231 252.793 445.281 252.794C445.86 252.854 446.264 253.231 446.729 253.529C447.124 253.785 447.348 254.179 447.683 254.485C447.899 254.678 447.973 255.04 448.108 255.322C448.282 255.685 448.466 256.038 448.651 256.391C448.67 256.442 448.719 256.483 448.718 256.533C448.79 256.994 448.853 257.445 448.915 257.906C448.941 258.117 448.948 258.327 448.974 258.527C449.019 258.878 449.142 259.24 449.077 259.559C449.001 259.928 449.055 260.259 449.069 260.609C449.077 260.719 449.026 260.828 449.004 260.938C448.993 260.998 448.942 261.047 448.941 261.107C448.883 261.566 448.846 262.015 448.778 262.474C448.722 262.834 448.655 263.202 448.54 263.541C448.329 264.177 448.098 264.813 447.828 265.429C447.526 266.104 447.185 266.758 446.834 267.422C446.607 267.859 446.349 268.294 446.082 268.71C445.938 268.947 445.745 269.154 445.571 269.381C445.325 269.707 445.089 270.043 444.844 270.379C444.813 270.419 444.782 270.468 444.742 270.497C444.427 270.782 444.092 271.047 443.787 271.341C443.513 271.607 443.248 271.892 442.983 272.158C442.841 272.306 442.679 272.443 442.526 272.59C442.404 272.708 442.302 272.857 442.16 272.954C441.978 273.071 441.766 273.158 441.565 273.254C441.555 273.254 441.545 273.264 441.535 273.254C441.327 273.09 441.049 272.975 440.933 272.763C440.855 272.612 440.98 272.334 441.034 272.125C441.141 271.667 441.534 271.523 441.897 271.349C441.978 271.311 442.059 271.242 442.18 271.164C442.07 271.162 442.02 271.152 441.89 271.149C442.103 271.013 442.274 270.906 442.446 270.799C442.578 270.711 442.768 270.714 442.752 270.454C442.744 270.354 443.006 270.248 443.128 270.12C443.362 269.854 443.597 269.588 443.802 269.301C444.007 269.015 444.152 268.697 444.446 268.452C444.669 268.276 444.794 267.978 444.948 267.73C445.216 267.295 445.493 266.87 445.721 266.413C445.98 265.898 446.199 265.361 446.428 264.835C446.521 264.607 446.625 264.388 446.699 264.16C446.825 263.792 446.952 263.424 447.068 263.046C447.153 262.767 447.227 262.488 447.272 262.209C447.46 261.162 447.637 260.115 447.495 259.052C447.478 258.912 447.5 258.772 447.502 258.632C447.497 258.372 447.521 258.103 447.466 257.862C447.345 257.319 447.194 256.787 447.022 256.264C446.966 256.073 446.819 255.9 446.701 255.738C446.574 255.576 446.427 255.424 446.289 255.261C445.907 254.805 445.463 254.447 444.886 254.248C443.912 253.921 442.939 254.045 441.975 254.278C441.895 254.297 441.774 254.335 441.753 254.395C441.669 254.623 441.459 254.64 441.278 254.727C441.046 254.833 440.843 254.969 440.612 255.075C440.43 255.162 440.21 255.179 440.048 255.276C439.725 255.471 439.45 255.756 439.117 255.92C438.492 256.23 438.053 256.762 437.526 257.184C437.515 257.193 437.505 257.213 437.485 257.223C437.172 257.378 436.968 257.634 436.763 257.921C436.568 258.208 436.265 258.413 436.05 258.679C435.672 259.153 435.245 259.575 434.926 260.1C434.515 260.763 434.034 261.385 433.633 262.049C433.18 262.791 432.727 263.554 432.354 264.337C431.96 265.181 431.645 266.066 431.33 266.94C431.194 267.308 431.137 267.717 431.03 268.096C430.955 268.394 430.85 268.683 430.775 268.981C430.721 269.21 430.688 269.44 430.634 269.669C430.536 270.117 430.439 270.566 430.351 271.014C430.33 271.094 430.298 271.164 430.297 271.244C430.277 271.853 430.256 272.463 430.226 273.073C430.213 273.242 430.17 273.412 430.157 273.592C430.145 273.721 430.153 273.852 430.161 273.982C430.229 274.673 430.298 275.354 430.396 276.046C430.476 276.607 430.507 277.178 430.939 277.635C431.096 277.808 431.223 278.02 431.319 278.232C431.608 278.917 432.191 279.307 432.776 279.647C433.043 279.811 433.339 280.056 433.72 279.963C433.75 279.953 433.81 279.964 433.82 279.984C434.003 280.377 434.328 280.103 434.587 280.147C434.767 280.18 434.948 280.133 435.147 280.167C435.066 280.205 434.986 280.244 434.915 280.283C434.925 280.303 434.934 280.333 434.934 280.353C436.799 280.085 438.588 279.555 440.302 278.724C440.262 278.723 440.222 278.722 440.182 278.732C440.142 278.741 440.102 278.74 440.042 278.709C440.577 278.458 441.101 278.217 441.635 277.966C441.635 277.946 441.626 277.926 441.626 277.916C441.566 277.915 441.496 277.904 441.386 277.902C441.8 277.679 442.174 277.475 442.577 277.252C442.508 277.211 442.478 277.19 442.399 277.149C442.803 276.936 443.176 276.732 443.56 276.518C443.55 276.508 443.55 276.488 443.541 276.478C443.46 276.497 443.38 276.505 443.29 276.524C443.28 276.514 443.27 276.493 443.27 276.483C443.614 276.279 443.957 276.085 444.351 275.862C444.241 275.84 444.202 275.829 444.102 275.797C444.426 275.593 444.729 275.408 445.042 275.213C445.003 275.172 444.973 275.142 444.924 275.091C444.985 275.042 445.046 274.993 445.107 274.944C445.472 274.63 445.857 274.347 446.193 274.002C446.467 273.727 446.683 273.401 446.928 273.095C446.959 273.065 446.989 273.036 447.02 273.006C447.264 272.76 447.628 272.546 447.733 272.248C447.838 271.95 448.109 271.894 448.242 271.687C448.386 271.469 448.549 271.262 448.734 271.015C448.734 271.005 448.735 270.905 448.776 270.876C449.049 270.67 449.352 270.525 449.701 270.571C450.14 270.619 450.441 271.184 450.303 271.661C450.271 271.771 450.219 271.89 450.237 271.99C450.309 272.462 450.402 272.923 450.504 273.385C450.569 273.676 450.994 273.973 451.285 273.938C451.375 273.93 451.516 273.862 451.537 273.793C451.611 273.564 451.792 273.477 451.984 273.38C452.115 273.322 452.306 273.256 452.328 273.156C452.425 272.747 452.934 272.776 453.039 272.498C453.186 272.09 453.576 272.067 453.831 271.811C453.791 271.79 453.752 271.76 453.682 271.719C454.127 271.436 454.581 271.224 455.12 271.293C455.18 271.304 455.248 271.375 455.287 271.436C455.442 271.728 455.457 272.039 455.303 272.316C455.189 272.514 455.237 272.645 455.355 272.787C455.551 273.02 455.544 273.42 455.359 273.687C455.155 273.974 454.969 274.271 454.765 274.547C454.683 274.666 454.551 274.754 454.449 274.862C454.317 275 454.175 275.127 454.062 275.285C453.888 275.533 453.617 275.618 453.359 275.454C453.161 275.32 452.984 275.147 452.787 275.004C452.718 274.953 452.598 274.901 452.548 274.93C452.356 275.057 452.173 275.214 452.001 275.361C451.96 275.39 451.939 275.45 451.899 275.479C451.291 275.919 450.93 276.553 450.6 277.187C450.403 277.564 450.305 278.022 450.338 278.483C450.353 278.783 450.298 279.082 450.272 279.392C450.26 279.522 450.268 279.652 450.256 279.782C450.231 280.041 450.207 280.301 450.183 280.561C450.171 280.681 450.178 280.801 450.156 280.93C450.132 281.16 450.089 281.389 450.055 281.619C450.043 281.729 450.031 281.838 450.009 281.958C449.975 282.217 449.94 282.477 449.906 282.726C449.895 282.766 449.884 282.816 449.884 282.856C449.914 283.447 449.715 283.983 449.545 284.541C449.439 284.909 449.393 285.288 449.296 285.666C449.222 285.935 449.137 286.204 449.013 286.452C448.796 286.878 448.549 287.284 448.312 287.71C448.043 288.216 447.607 288.558 447.201 288.942C446.804 289.305 446.381 289.518 445.899 289.61C445.548 289.684 445.168 289.687 444.809 289.631C444.42 289.575 444.021 289.458 443.654 289.302C443.158 289.083 442.743 288.766 442.532 288.213C442.331 287.679 442.12 287.156 442.16 286.586C442.186 286.206 442.263 285.808 442.419 285.47C442.772 284.666 443.186 283.873 443.599 283.09C443.775 282.753 444.03 282.447 444.245 282.131C444.461 281.804 444.666 281.468 444.902 281.152C445.199 280.747 445.515 280.362 445.832 279.977C446.189 279.543 446.567 279.109 446.934 278.676C447.26 278.301 447.587 277.916 447.923 277.542C448.097 277.345 448.319 277.179 448.463 276.961C448.638 276.684 448.922 276.439 448.839 276.047C448.82 275.947 448.832 275.827 448.884 275.738C449.111 275.302 448.878 274.918 448.774 274.526C448.737 274.365 448.191 274.116 448.03 274.153C447.98 274.163 447.94 274.202 447.899 274.231C447.706 274.418 447.523 274.615 447.329 274.802C447.004 275.126 446.678 275.451 446.343 275.755C445.977 276.089 445.602 276.413 445.236 276.737C444.901 277.041 444.576 277.346 444.241 277.65C444.231 277.66 444.231 277.66 444.221 277.67C443.906 277.914 443.612 278.189 443.278 278.394C442.662 278.753 442.163 279.285 441.498 279.574C441.317 279.651 441.183 279.859 441.001 279.956C440.81 280.062 440.589 280.109 440.387 280.185C440.206 280.252 439.976 280.268 439.932 280.528C439.931 280.548 439.901 280.567 439.871 280.577C439.498 280.76 439.134 280.964 438.742 281.108C438.319 281.27 437.876 281.413 437.425 281.495C436.893 281.586 436.343 281.607 435.802 281.648C435.712 281.656 435.622 281.645 435.542 281.664C435.11 281.766 434.701 281.719 434.272 281.662C433.853 281.605 433.433 281.588 433.046 281.421C432.549 281.213 432.001 281.114 431.607 280.707C431.489 280.585 431.331 280.492 431.183 280.4C430.688 280.071 430.386 279.586 430.074 279.111C429.85 278.767 429.687 278.364 429.573 277.962C429.271 276.937 428.978 275.912 428.726 274.868C428.651 274.556 428.737 274.208 428.732 273.878C428.735 273.708 428.688 273.527 428.691 273.357C428.685 273.147 428.698 272.947 428.712 272.737C428.713 272.657 428.754 272.588 428.755 272.508C428.795 271.968 428.824 271.429 428.863 270.889C428.863 270.859 428.854 270.839 428.864 270.809C428.962 270.351 429.06 269.892 429.157 269.434C429.168 269.374 429.199 269.315 429.2 269.255C429.179 268.744 429.397 268.298 429.545 267.83C429.65 267.482 429.737 267.124 429.852 266.775C430.053 266.179 430.263 265.572 430.493 264.986C430.702 264.439 430.941 263.903 431.18 263.367C431.388 262.911 431.606 262.444 431.863 262.019C432.264 261.355 432.705 260.713 433.136 260.06C433.383 259.694 433.639 259.328 433.885 258.962C433.895 258.953 433.905 258.933 433.916 258.923C434.211 258.618 434.576 258.344 434.792 257.988C434.947 257.67 435.259 257.535 435.473 257.289ZM445.637 287.985C445.646 288.005 445.656 288.015 445.666 288.035C445.989 287.851 446.322 287.687 446.645 287.482C446.706 287.443 446.689 287.273 446.75 287.214C447.157 286.811 447.335 286.283 447.534 285.777C447.691 285.369 447.818 284.951 447.935 284.533C448.042 284.145 448.138 283.757 448.205 283.358C448.282 282.919 448.31 282.469 448.368 282.02C448.368 282.01 448.368 282 448.378 281.99C448.614 281.624 448.491 281.222 448.458 280.832C448.432 280.551 448.197 280.257 448.008 280.234C447.619 280.177 447.236 280.351 447.081 280.608C446.896 280.915 446.691 281.202 446.476 281.488C446.128 281.962 445.761 282.416 445.422 282.901C445.135 283.316 444.878 283.762 444.61 284.197C444.178 284.92 443.746 285.633 443.711 286.512C443.709 286.652 443.596 286.8 443.604 286.941C443.621 287.141 443.646 287.391 443.774 287.533C443.911 287.696 444.17 287.76 444.358 287.883C444.625 288.058 444.904 288.123 445.205 288.058C445.356 288.03 445.496 288.003 445.637 287.985Z" fill="#85BCFF"/>
<path d="M400.527 298.835C400.516 298.874 400.495 298.924 400.474 299.014C400.934 298.982 401.375 298.959 401.845 298.927C401.835 298.977 401.824 299.017 401.793 299.096C404.309 298.739 406.653 297.898 408.97 296.967C408.889 296.976 408.809 296.974 408.719 296.983C408.709 296.973 408.71 296.963 408.7 296.952C409.032 296.818 409.354 296.683 409.687 296.539C410.009 296.394 410.332 296.24 410.715 296.046C410.546 296.033 410.466 296.022 410.346 296.02C410.83 295.778 411.294 295.556 411.798 295.315C411.659 295.272 411.589 295.251 411.509 295.23C411.983 294.998 412.437 294.775 412.891 294.563C412.881 294.543 412.881 294.533 412.872 294.513C412.782 294.501 412.702 294.5 412.552 294.487C412.956 294.274 413.309 294.09 413.662 293.906C413.652 293.886 413.653 293.866 413.643 293.855C413.563 293.854 413.473 293.863 413.332 293.87C413.706 293.657 414.029 293.462 414.373 293.258C414.314 293.217 414.284 293.186 414.225 293.135C414.437 292.999 414.649 292.872 414.842 292.736C414.903 292.687 414.925 292.577 414.976 292.508C415.037 292.429 415.108 292.35 415.189 292.291C415.321 292.194 415.462 292.116 415.624 292.009C415.545 291.977 415.505 291.967 415.455 291.946C415.708 291.76 415.951 291.584 416.225 291.389C416.145 291.377 416.095 291.377 416.025 291.365C416.066 291.326 416.086 291.296 416.107 291.277C416.289 291.15 416.501 291.043 416.663 290.886C416.907 290.64 417.112 290.354 417.337 290.087C417.541 289.841 417.745 289.604 417.949 289.358C418.194 289.062 418.449 288.776 418.665 288.46C418.952 288.034 419.346 287.811 419.854 287.9C419.954 287.911 420.062 288.003 420.111 288.084C420.305 288.437 420.349 288.798 420.053 289.133C419.676 289.567 419.299 290 418.921 290.444C418.707 290.701 418.512 290.957 418.308 291.224C418.288 291.244 418.287 291.274 418.267 291.293C417.982 291.578 417.687 291.863 417.402 292.149C416.945 292.591 416.457 293.013 416.049 293.496C415.722 293.891 415.298 294.153 414.932 294.507C414.525 294.901 414.089 295.273 413.662 295.656C413.611 295.705 413.551 295.744 413.49 295.773C412.864 296.113 412.375 296.674 411.7 296.933C411.63 296.962 411.48 296.969 411.587 297.111C411.537 297.15 411.486 297.2 411.425 297.229C411.133 297.364 410.831 297.499 410.548 297.644C410.488 297.673 410.446 297.772 410.405 297.841C410.425 297.862 410.444 297.892 410.474 297.913C409.92 298.123 409.366 298.344 408.803 298.564C408.822 298.595 408.851 298.635 408.89 298.696C408.759 298.744 408.639 298.772 408.518 298.83C408.336 298.927 408.165 299.034 407.983 299.141C407.922 299.18 407.861 299.219 407.801 299.238C406.856 299.512 405.921 299.826 404.967 300.05C404.374 300.19 403.744 300.189 403.133 300.259C402.943 300.276 402.752 300.302 402.562 300.329C402.512 300.338 402.461 300.358 402.411 300.357C401.782 300.326 401.142 300.295 400.513 300.255C400.383 300.242 400.254 300.2 400.124 300.198C399.174 300.172 398.33 299.818 397.63 299.226C397.147 298.818 396.725 298.3 396.567 297.628C396.445 297.116 396.276 297.073 395.89 297.446C395.544 297.77 395.248 298.145 394.912 298.48C394.413 298.981 393.876 299.442 393.407 299.965C392.999 300.428 392.513 300.78 392.056 301.172C391.64 301.535 391.273 301.969 390.817 302.271C390.221 302.661 389.712 303.183 389.027 303.441C388.957 303.47 388.807 303.467 388.914 303.619C388.864 303.658 388.813 303.708 388.752 303.737C388.46 303.872 388.158 304.007 387.875 304.152C387.815 304.181 387.773 304.28 387.732 304.349C387.751 304.37 387.771 304.4 387.801 304.421C387.247 304.631 386.693 304.852 386.129 305.072C386.149 305.103 386.178 305.143 386.217 305.204C386.086 305.252 385.966 305.28 385.845 305.338C385.663 305.435 385.491 305.542 385.31 305.649C385.249 305.688 385.188 305.727 385.128 305.746C384.173 306.03 383.228 306.344 382.264 306.567C381.681 306.708 381.061 306.707 380.46 306.767C380.27 306.784 380.079 306.81 379.889 306.837C379.829 306.846 379.768 306.875 379.708 306.874C379.078 306.844 378.459 306.813 377.829 306.773C377.7 306.76 377.57 306.718 377.44 306.716C376.491 306.69 375.637 306.335 374.946 305.744C374.414 305.295 373.974 304.707 373.816 303.974C373.798 303.894 373.769 303.814 373.731 303.673C373.598 303.871 373.505 304.029 373.383 304.167C373.046 304.561 372.699 304.956 372.353 305.34C372.343 305.35 372.332 305.369 372.322 305.379C371.967 305.683 371.602 305.987 371.247 306.291C370.881 306.605 370.526 306.939 370.16 307.263C370.15 307.273 370.15 307.273 370.14 307.283C369.605 307.584 369.226 308.097 368.642 308.338C368.471 308.405 368.358 308.583 368.196 308.68C367.943 308.836 367.671 308.951 367.418 309.117C367.287 309.205 366.978 309.15 367.072 309.471C367.082 309.491 366.931 309.559 366.85 309.587C366.428 309.75 365.995 309.913 365.582 310.086C365.501 310.115 365.45 310.204 365.379 310.253C365.308 310.312 365.227 310.36 365.146 310.409C364.884 310.544 364.632 310.68 364.369 310.816C364.299 310.855 364.228 310.873 364.148 310.902C363.424 311.12 362.7 311.338 361.977 311.545C361.826 311.593 361.665 311.62 361.515 311.628C360.705 311.634 359.873 311.74 359.087 311.477C358.6 311.318 358.134 311.09 357.74 310.704C357.268 310.226 356.977 309.681 356.878 309.039C356.842 308.798 356.887 308.539 356.901 308.299C356.904 308.109 356.907 307.919 356.93 307.72C356.955 307.47 357.009 307.231 357.033 306.981C357.045 306.842 357.078 306.682 357.03 306.561C356.982 306.42 356.843 306.358 356.712 306.466C356.539 306.603 356.279 306.639 356.224 306.908C356.213 306.957 356.143 306.996 356.082 307.015C355.669 307.188 355.305 307.422 354.941 307.696C354.606 307.95 354.164 308.083 353.752 308.216C353.4 308.33 353.019 308.384 352.648 308.437C352.477 308.465 352.276 308.521 352.15 308.309C352.14 308.289 352.05 308.297 352 308.307C351.91 308.325 351.809 308.343 351.719 308.372C351.528 308.409 351.326 308.525 351.167 308.472C351.028 308.43 350.962 308.199 350.834 308.067C350.578 307.792 350.313 307.528 350.037 307.273C349.771 307.019 349.586 306.736 349.522 306.354C349.459 305.963 349.315 305.591 349.202 305.219C349.183 305.158 349.164 305.098 349.165 305.038C349.269 304.19 349.463 303.393 349.975 302.662C350.324 302.157 350.766 302.015 351.268 301.913C351.84 301.793 352.216 302.039 352.366 302.602C352.489 303.044 352.591 303.486 352.664 303.937C352.7 304.158 352.656 304.387 352.652 304.617C352.647 304.917 352.662 305.217 352.657 305.507C352.655 305.617 352.653 305.747 352.592 305.836C352.437 306.084 352.493 306.335 352.559 306.576C352.578 306.656 352.776 306.759 352.856 306.741C353.429 306.6 353.991 306.46 354.554 306.279C354.856 306.174 355.129 305.999 355.403 305.804C355.312 305.812 355.232 305.821 355.142 305.829C355.133 305.809 355.123 305.799 355.113 305.779C355.436 305.604 355.759 305.43 356.001 305.304C356.054 305.155 356.055 305.055 356.106 305.015C356.643 304.614 357.246 304.455 357.906 304.466C357.946 304.466 358.006 304.467 358.025 304.498C358.231 304.751 358.447 305.005 358.642 305.268C358.671 305.309 358.67 305.369 358.67 305.419C358.655 305.719 358.649 306.018 358.624 306.318C358.576 306.797 358.598 307.298 358.45 307.735C358.198 308.481 358.648 309.049 358.817 309.692C358.855 309.822 359.084 309.926 359.252 309.999C359.629 310.176 359.975 310.452 360.447 310.309C361.251 310.073 362.075 309.877 362.879 309.62C363.644 309.373 364.399 309.076 365.163 308.799C365.254 308.77 365.335 308.722 365.496 308.645C365.356 308.632 365.296 308.631 365.236 308.62C365.227 308.61 365.227 308.59 365.217 308.58C365.872 308.291 366.527 308.002 367.182 307.713C367.172 307.703 367.173 307.683 367.163 307.673C367.073 307.681 366.982 307.689 366.892 307.698C366.892 307.688 366.883 307.678 366.883 307.668C367.357 307.436 367.831 307.204 368.315 306.982C368.305 306.972 368.305 306.952 368.295 306.942C368.245 306.941 368.195 306.93 368.145 306.929C368.136 306.909 368.126 306.899 368.116 306.878C368.51 306.675 368.903 306.472 369.317 306.249C369.228 306.207 369.188 306.186 369.129 306.155C369.472 305.951 369.785 305.767 370.098 305.582C370.079 305.561 370.049 305.541 370.03 305.521C370.061 305.461 370.082 305.381 370.122 305.352C370.345 305.206 370.567 305.08 370.83 304.924C370.76 304.903 370.72 304.882 370.641 304.861C370.742 304.783 370.823 304.714 370.904 304.655C371.086 304.528 371.307 304.472 371.362 304.203C371.384 304.093 371.565 304.016 371.657 303.918C371.881 303.672 372.105 303.425 372.31 303.169C372.463 302.971 372.567 302.733 372.71 302.525C372.987 302.12 373.254 301.715 373.561 301.33C373.724 301.122 373.908 300.915 374.12 300.779C374.474 300.555 374.591 300.167 374.766 299.84C375.065 299.295 375.443 298.821 375.851 298.368C376.147 298.043 376.482 297.758 376.776 297.473C376.786 297.474 376.737 297.463 376.687 297.462C376.677 297.442 376.667 297.432 376.667 297.412C377.142 297.17 377.626 296.928 378.15 296.666C378.01 296.684 377.92 296.693 377.82 296.701C377.81 296.691 377.81 296.671 377.8 296.661C377.921 296.603 378.032 296.544 378.153 296.497C378.495 296.382 378.837 296.258 379.189 296.184C379.349 296.147 379.518 296.22 379.688 296.242C379.708 296.243 379.717 296.263 379.737 296.263C380.197 296.271 380.513 296.526 380.777 296.871C380.875 296.993 380.993 297.105 381.051 297.236C381.147 297.457 381.213 297.698 381.289 297.93C381.469 298.543 381.31 299.09 380.951 299.584C380.726 299.89 380.491 300.197 380.256 300.493C380.215 300.542 380.155 300.561 380.114 300.61C379.941 300.777 379.768 300.944 379.596 301.102C379.494 301.19 379.393 301.268 379.281 301.346C378.674 301.776 378.076 302.226 377.459 302.626C377.176 302.811 376.844 302.915 376.533 303.03C376.17 303.154 375.799 303.248 375.397 303.361C375.52 303.773 375.593 304.174 375.747 304.537C375.91 304.93 376.277 305.116 376.676 305.213C376.705 305.223 376.736 305.204 376.755 305.224C377.06 305.539 377.463 305.386 377.842 305.443C377.821 305.492 377.81 305.532 377.779 305.621C378.24 305.589 378.68 305.567 379.151 305.535C379.14 305.584 379.129 305.614 379.098 305.704C381.614 305.346 383.959 304.506 386.275 303.575C386.185 303.573 386.105 303.582 385.954 303.589C386.66 303.271 387.315 302.982 387.96 302.693C387.95 302.673 387.95 302.663 387.941 302.643C387.861 302.641 387.771 302.63 387.651 302.618C388.145 302.376 388.599 302.154 389.113 301.912C388.974 301.87 388.904 301.859 388.824 301.837C389.298 301.605 389.752 301.383 390.206 301.171C390.196 301.151 390.196 301.141 390.187 301.12C390.107 301.109 390.017 301.108 389.867 301.095C390.271 300.882 390.624 300.698 390.977 300.514C390.967 300.493 390.968 300.473 390.958 300.463C390.878 300.462 390.788 300.47 390.648 300.478C391.021 300.264 391.345 300.07 391.688 299.866C391.639 299.815 391.599 299.794 391.55 299.743C391.762 299.607 391.974 299.49 392.167 299.344C392.228 299.295 392.25 299.185 392.301 299.116C392.362 299.037 392.424 298.958 392.505 298.889C392.636 298.791 392.778 298.714 392.94 298.607C392.86 298.575 392.82 298.564 392.761 298.543C393.014 298.358 393.247 298.192 393.51 297.996C393.44 297.975 393.4 297.964 393.311 297.943C393.463 297.835 393.604 297.758 393.726 297.65C394.223 297.208 394.652 296.715 395.001 296.151C395.022 296.121 395.042 296.092 395.073 296.072C395.507 295.789 395.715 295.323 396.032 294.948C396.236 294.712 396.479 294.496 396.742 294.33C397.116 294.086 397.214 293.668 397.449 293.332C397.807 292.848 398.126 292.333 398.514 291.88C398.8 291.534 399.154 291.26 399.46 290.966C399.47 290.966 399.42 290.955 399.37 290.954C399.36 290.934 399.35 290.924 399.351 290.904C399.825 290.662 400.309 290.42 400.833 290.159C400.693 290.176 400.603 290.185 400.503 290.193C400.493 290.183 400.493 290.163 400.483 290.153C400.604 290.095 400.715 290.037 400.836 289.989C401.178 289.874 401.52 289.75 401.872 289.676C402.032 289.639 402.201 289.712 402.371 289.735C402.391 289.735 402.4 289.755 402.42 289.755C402.87 289.773 403.186 289.998 403.441 290.343C403.548 290.485 403.686 290.617 403.763 290.778C403.86 290.98 403.916 291.211 403.982 291.432C404.162 292.045 404.003 292.592 403.644 293.087C403.419 293.393 403.184 293.699 402.949 293.995C402.908 294.044 402.848 294.063 402.807 294.113C402.634 294.28 402.461 294.447 402.288 294.604C402.187 294.692 402.086 294.77 401.974 294.849C401.367 295.278 400.769 295.728 400.152 296.128C399.869 296.313 399.537 296.418 399.225 296.532C398.863 296.656 398.492 296.75 398.1 296.863C398.222 297.296 398.326 297.697 398.459 298.09C398.545 298.341 399.109 298.691 399.369 298.715C399.399 298.716 399.449 298.706 399.468 298.727C399.765 298.932 400.158 298.758 400.527 298.835ZM400.457 294.073C400.447 294.063 400.448 294.043 400.438 294.032C400.499 293.994 400.559 293.945 400.62 293.916C400.832 293.799 401.064 293.703 401.266 293.566C401.347 293.518 401.379 293.408 401.44 293.319C401.481 293.26 401.512 293.201 401.553 293.151C401.736 292.944 401.9 292.737 402.103 292.55C402.387 292.295 402.433 291.986 402.379 291.635C402.325 291.254 402.118 291.09 401.756 291.204C401.374 291.328 401.001 291.482 400.628 291.645C400.487 291.703 400.365 291.821 400.263 291.929C400.039 292.175 399.864 292.483 399.62 292.698C399.184 293.081 398.985 293.618 398.687 294.083C398.574 294.261 398.48 294.46 398.447 294.659C398.424 294.809 398.522 294.98 398.579 295.141C398.579 295.151 398.719 295.134 398.78 295.095C399.234 294.862 399.698 294.62 400.152 294.378C400.344 294.271 400.545 294.174 400.737 294.068C400.728 294.047 400.718 294.037 400.708 294.017C400.638 294.046 400.547 294.054 400.457 294.073ZM377.764 300.611C377.754 300.59 377.744 300.57 377.745 300.55C378.007 300.405 378.279 300.269 378.542 300.114C378.653 300.055 378.794 300.018 378.757 299.827C378.748 299.777 378.829 299.708 378.87 299.659C379.084 299.423 379.308 299.186 379.532 298.95C379.746 298.714 379.796 298.124 379.6 297.891C379.521 297.79 379.333 297.697 379.223 297.715C378.661 297.835 378.098 297.986 377.671 298.379C377.295 298.722 376.978 299.147 376.642 299.531C376.621 299.551 376.611 299.571 376.6 299.601C376.342 300.076 376.074 300.542 375.846 301.038C375.784 301.177 375.8 301.367 375.828 301.528C375.864 301.749 375.984 301.731 376.146 301.613C376.339 301.477 376.541 301.36 376.753 301.254C377.085 301.089 377.418 300.945 377.75 300.79C377.861 300.742 377.953 300.664 378.054 300.595C378.044 300.585 378.034 300.575 378.035 300.555C377.924 300.573 377.844 300.592 377.764 300.611ZM351.142 304.591C351.114 304.511 351.105 304.461 351.085 304.431C351.026 304.37 350.967 304.329 350.898 304.267C350.857 304.347 350.775 304.415 350.774 304.495C350.772 304.645 350.809 304.796 350.847 304.927C350.866 304.987 350.965 305.049 351.015 305.039C351.065 305.03 351.137 304.941 351.148 304.882C351.169 304.772 351.141 304.661 351.142 304.591Z" fill="#85BCFF"/>
<path d="M339.328 300.011C339.378 300.032 339.437 300.063 339.497 300.084C339.476 300.114 339.466 300.144 339.446 300.153C338.721 300.451 337.986 300.739 337.26 301.047C337.2 301.076 337.158 301.165 337.098 301.214C337.037 301.263 336.956 301.322 336.886 301.32C336.736 301.318 336.586 301.275 336.437 301.253C336.217 301.219 336.032 300.926 336.037 300.666C336.042 300.336 336.117 300.067 336.499 299.964C336.76 299.898 337.002 299.762 337.254 299.656C337.506 299.551 337.757 299.455 338.059 299.34C337.96 299.308 337.9 299.297 337.791 299.265C338.324 299.054 338.787 298.862 339.27 298.69C340.307 298.318 341.353 297.955 342.39 297.573C342.933 297.372 343.291 296.928 343.282 296.288C343.284 296.158 343.316 296.028 343.328 295.898C343.352 295.689 343.375 295.479 343.399 295.279C343.422 295.09 343.455 294.9 343.478 294.721C343.489 294.681 343.519 294.641 343.52 294.591C343.56 294.042 343.589 293.492 343.618 292.953C343.631 292.783 343.654 292.603 343.667 292.434C343.667 292.394 343.698 292.344 343.699 292.304C343.72 291.674 343.75 291.045 343.771 290.425C343.772 290.325 343.764 290.235 343.766 290.135C343.807 289.456 343.859 288.776 343.87 288.096C343.874 287.876 343.788 287.645 343.781 287.425C343.766 287.155 343.661 286.853 343.955 286.638C343.985 286.618 343.987 286.518 343.958 286.468C343.641 285.692 343.624 284.872 343.568 284.061C343.543 283.78 343.508 283.5 343.432 283.228C343.196 282.394 342.94 281.56 342.674 280.735C342.627 280.584 342.489 280.472 342.391 280.34C342.332 280.269 342.233 280.218 342.194 280.137C342.039 279.824 341.803 279.6 341.567 279.346C341.292 279.062 340.986 278.856 340.648 278.711C340.152 278.492 339.634 278.343 339.127 278.165C339.077 278.154 339.027 278.163 338.967 278.172C338.365 278.252 337.764 278.322 337.172 278.422C336.591 278.512 336.019 278.622 335.437 278.733C335.367 278.741 335.276 278.77 335.255 278.82C335.161 279.078 334.921 279.094 334.719 279.181C334.548 279.258 334.386 279.375 334.215 279.452C333.953 279.568 333.681 279.673 333.409 279.769C333.087 279.883 332.785 279.998 332.55 280.294C332.417 280.462 332.137 280.487 331.964 280.634C331.569 280.958 331.193 281.321 330.817 281.665C330.776 281.704 330.725 281.743 330.675 281.783C330.26 282.076 329.973 282.471 329.696 282.886C329.398 283.351 329.041 283.775 328.733 284.23C328.19 285.031 327.705 285.863 327.34 286.757C327.111 287.313 326.861 287.869 326.652 288.436C326.516 288.793 326.439 289.172 326.333 289.54C326.217 289.919 326.1 290.307 325.984 290.685C325.952 290.794 325.95 290.904 325.928 291.014C325.885 291.213 325.851 291.423 325.808 291.622C325.807 291.652 325.787 291.672 325.777 291.691C325.73 292.101 325.643 292.509 325.636 292.929C325.629 293.309 325.753 293.691 325.567 294.068C325.525 294.157 325.583 294.288 325.591 294.409C325.622 294.919 325.643 295.44 325.685 295.95C325.701 296.151 325.718 296.351 325.765 296.542C325.972 297.275 326.17 298.019 326.418 298.743C326.513 299.025 326.749 299.269 326.904 299.532C327.041 299.764 327.146 300.016 327.292 300.248C327.38 300.4 327.518 300.522 327.636 300.654C327.665 300.695 327.714 300.725 327.744 300.766C328.366 301.797 329.348 302.293 330.443 302.632C330.662 302.695 330.88 302.809 331.078 302.932C331.276 303.056 331.276 303.596 331.153 303.804C330.886 304.229 330.535 304.254 330.108 304.106C329.76 303.99 329.39 303.944 329.053 303.808C328.754 303.693 328.477 303.539 328.21 303.354C327.864 303.118 327.518 302.862 327.203 302.567C326.928 302.302 326.673 302.008 326.448 301.704C326.223 301.4 326.038 301.077 325.864 300.744C325.67 300.381 325.476 300.017 325.352 299.635C325.097 298.801 324.881 297.947 324.655 297.103C324.533 296.621 324.411 296.139 324.32 295.647C324.292 295.507 324.385 295.348 324.387 295.198C324.4 295.039 324.393 294.868 324.356 294.708C324.252 294.326 324.198 293.955 324.365 293.578C324.396 293.508 324.367 293.418 324.379 293.348C324.403 293.058 324.418 292.759 324.443 292.469C324.444 292.449 324.454 292.429 324.454 292.419C324.373 291.908 324.571 291.421 324.629 290.932C324.677 290.493 324.834 290.065 324.951 289.627C324.962 289.587 324.993 289.548 324.993 289.508C324.973 288.957 325.29 288.513 325.399 288.004C325.604 287.138 325.997 286.364 326.41 285.591C326.802 284.858 327.185 284.124 327.627 283.411C327.925 282.926 328.312 282.513 328.64 282.048C328.865 281.732 329.14 281.477 329.454 281.252C329.697 281.076 329.871 280.809 330.085 280.563C330.182 280.184 330.661 280.222 330.866 279.916C330.826 279.905 330.776 279.904 330.657 279.882C331.081 279.649 331.444 279.445 331.838 279.222C331.749 279.2 331.689 279.179 331.569 279.147C332.184 278.868 332.739 278.607 333.293 278.356C333.283 278.346 333.283 278.326 333.274 278.316C333.173 278.324 333.073 278.333 332.923 278.35C332.994 278.281 333.015 278.242 333.055 278.232C334.695 277.63 336.355 277.088 338.08 276.787C338.291 276.751 338.523 276.604 338.76 276.828C338.829 276.89 339.03 276.813 339.17 276.795C339.44 276.78 339.722 276.685 339.968 276.919C339.998 276.949 340.088 276.921 340.148 276.942C340.337 276.995 340.516 277.058 340.705 277.111C340.735 277.122 340.764 277.152 340.794 277.153C341.364 277.173 341.798 277.56 342.193 277.867C342.577 278.183 343.073 278.462 343.244 278.995C343.263 279.045 343.292 279.115 343.331 279.126C343.76 279.203 343.723 279.603 343.829 279.875C343.953 280.207 344.068 280.519 344.253 280.822C344.701 281.539 344.947 282.344 345.013 283.185C345.07 283.956 345.217 284.709 345.355 285.471C345.41 285.762 345.365 286.061 345.36 286.361C345.359 286.411 345.348 286.471 345.347 286.521C345.375 287.222 345.413 287.912 345.432 288.613C345.436 288.923 345.401 289.242 345.386 289.552C345.384 289.672 345.402 289.793 345.389 289.922C345.374 290.212 345.359 290.512 345.345 290.802C345.344 290.862 345.312 290.921 345.311 290.981C345.302 291.561 345.312 292.131 345.272 292.711C345.244 293.22 345.155 293.729 345.106 294.238C345.07 294.598 344.994 294.956 345.038 295.307C345.074 295.548 345.27 295.781 345.417 296.004C345.446 296.044 345.546 296.046 345.616 296.037C345.766 296.02 345.907 295.982 346.048 295.934C347.344 295.576 348.641 295.208 349.927 294.85C350.088 294.802 350.722 295.113 350.8 295.264C350.906 295.476 350.782 295.744 350.557 296.01C350.272 296.336 349.909 296.47 349.518 296.583C348.844 296.792 348.19 297.031 347.526 297.239C346.742 297.486 345.948 297.703 345.164 297.96C345.033 297.997 344.921 298.136 344.838 298.264C344.603 298.6 344.516 298.979 344.489 299.398C344.452 299.838 344.285 300.255 344.207 300.694C344.12 301.142 344.072 301.602 344.004 302.061C343.993 302.16 343.961 302.27 343.929 302.369C343.908 302.449 343.866 302.518 343.845 302.588C343.768 303.027 343.71 303.466 343.613 303.894C343.451 304.622 343.269 305.339 343.096 306.066C343.086 306.106 343.075 306.156 343.074 306.196C343.065 306.755 342.886 307.273 342.727 307.8C342.611 308.188 342.554 308.587 342.457 308.986C342.436 309.075 342.404 309.165 342.372 309.254C342.341 309.324 342.28 309.403 342.279 309.473C342.297 310.173 341.897 310.776 341.805 311.455C341.749 311.814 341.573 312.161 341.467 312.519C341.383 312.798 341.358 313.088 341.243 313.346C341.16 313.534 341.017 313.722 340.855 313.859C340.54 314.124 340.013 313.955 339.889 313.563C339.785 313.241 339.71 312.94 339.896 312.583C340.072 312.246 340.119 311.836 340.215 311.448C340.322 311.04 340.439 310.642 340.546 310.233C340.631 309.905 340.707 309.576 340.792 309.247C340.92 308.77 341.059 308.282 341.187 307.804C341.197 307.774 341.208 307.734 341.209 307.704C341.328 307.166 341.457 306.618 341.566 306.07C341.653 305.661 341.7 305.242 341.777 304.833C341.832 304.524 341.917 304.226 341.993 303.917C342.09 303.489 342.197 303.06 342.294 302.622C342.359 302.333 342.394 302.043 342.449 301.744C342.538 301.236 342.636 300.737 342.725 300.229C342.802 299.82 342.516 299.565 342.281 299.291C342.251 299.251 342.141 299.249 342.081 299.268C341.167 299.482 340.253 299.747 339.328 300.011Z" fill="#85BCFF"/>
<g clip-path="url(#clip1_146_2295)">
<path d="M573.384 160.341C576.51 162.146 577.583 166.148 575.778 169.275L559.888 196.797L554.224 193.527L573.384 160.341Z" fill="white"/>
<path d="M559.889 197.299C559.799 197.299 559.719 197.279 559.639 197.229L553.969 193.959C553.729 193.819 553.649 193.519 553.789 193.279L572.949 160.089C573.019 159.979 573.119 159.889 573.249 159.859C573.379 159.829 573.509 159.839 573.629 159.909C576.989 161.849 578.149 166.169 576.209 169.529L560.319 197.059C560.249 197.169 560.149 197.259 560.019 197.289C559.979 197.299 559.929 197.309 559.889 197.309V197.299ZM554.909 193.339L559.709 196.109L575.349 169.019C576.929 166.279 576.119 162.799 573.559 161.029L554.909 193.339Z" fill="#2175F3"/>
<path d="M507.989 262.879L506.359 261.929L507.889 256.959L511.539 259.059L507.989 262.879Z" fill="white"/>
<path d="M507.989 263.379C507.899 263.379 507.819 263.359 507.739 263.309L506.109 262.369C505.909 262.249 505.809 262.009 505.879 261.789L507.409 256.809C507.449 256.659 507.559 256.549 507.699 256.489C507.839 256.429 507.999 256.449 508.129 256.519L511.769 258.619C511.899 258.699 511.989 258.829 512.009 258.979C512.029 259.129 511.989 259.279 511.879 259.389L508.339 263.209C508.239 263.309 508.109 263.369 507.969 263.369L507.989 263.379ZM506.949 261.699L507.889 262.239L510.739 259.179L508.179 257.699L506.949 261.699Z" fill="#2175F3"/>
<path d="M571.697 164.223L559.953 157.443L509.938 244.072L521.682 250.852L571.697 164.223Z" fill="white"/>
<path d="M521.679 251.339C521.589 251.339 521.509 251.319 521.429 251.269L509.689 244.489C509.449 244.349 509.369 244.049 509.509 243.809L559.519 157.189C559.659 156.949 559.959 156.869 560.199 157.009L571.939 163.789C572.059 163.859 572.139 163.969 572.169 164.089C572.199 164.219 572.189 164.349 572.119 164.469L522.109 251.089C522.039 251.199 521.939 251.289 521.809 251.319C521.769 251.329 521.719 251.339 521.679 251.339ZM510.619 243.879L521.489 250.159L571.009 164.399L560.139 158.119L510.619 243.879Z" fill="#2175F3"/>
<path d="M572.133 149.898C575.372 151.768 576.485 155.921 574.615 159.159L571.46 164.624L559.717 157.844L562.872 152.379C564.742 149.141 568.895 148.028 572.133 149.898Z" fill="white"/>
<path d="M571.459 165.119C571.379 165.119 571.289 165.099 571.209 165.049L559.469 158.269C559.349 158.199 559.269 158.089 559.239 157.969C559.209 157.839 559.219 157.709 559.289 157.589L562.449 152.129C564.459 148.649 568.919 147.459 572.389 149.469C574.069 150.439 575.279 152.009 575.779 153.889C576.279 155.769 576.029 157.729 575.049 159.409L571.889 164.869C571.799 165.029 571.629 165.119 571.459 165.119ZM560.399 157.659L571.269 163.939L574.179 158.909C575.019 157.459 575.239 155.769 574.809 154.149C574.379 152.529 573.339 151.179 571.889 150.339C568.889 148.609 565.049 149.639 563.309 152.639L560.399 157.669V157.659Z" fill="#2175F3"/>
<path d="M512.129 259.899L506.869 256.859L509.939 244.069L521.679 250.839L512.129 259.899Z" fill="white"/>
<path d="M512.129 260.399C512.039 260.399 511.959 260.379 511.879 260.329L506.619 257.289C506.429 257.179 506.329 256.959 506.379 256.739L509.449 243.939C509.489 243.789 509.589 243.659 509.739 243.599C509.889 243.539 510.049 243.549 510.189 243.629L521.929 250.409C522.069 250.489 522.159 250.629 522.179 250.779C522.199 250.929 522.139 251.089 522.029 251.199L512.479 260.259C512.389 260.349 512.259 260.399 512.139 260.399H512.129ZM507.439 256.619L512.059 259.289L520.849 250.949L510.269 244.839L507.439 256.619Z" fill="#2175F3"/>
</g>
</g>
<defs>
<clipPath id="clip0_146_2295">
<rect width="600" height="380" fill="white"/>
</clipPath>
<clipPath id="clip1_146_2295">
<rect width="71.3" height="114.89" fill="white" transform="translate(505.859 148.489)"/>
</clipPath>
</defs>
</svg>
